<svg width="454" height="277" viewBox="0 0 454 277" fill="none" xmlns="http://www.w3.org/2000/svg">
<path d="M127.932 207.048C127.932 207.048 148.103 176.648 151.903 172.262C155.702 167.876 165.348 159.107 191.075 152.678C216.802 146.248 230.247 143.032 230.247 143.032V125.201C230.247 125.201 211.539 120.525 207.447 117.308C203.354 114.092 198.091 109.709 202.477 91.2913C206.863 72.8767 216.802 48.0295 230.247 38.3805C243.692 28.735 282.865 32.8279 288.128 55.9185C293.39 79.0126 292.804 118.768 289.591 128.997C286.374 139.229 272.053 134.55 272.053 134.55L272.636 143.612C272.636 143.612 313.268 156.18 324.96 166.413C336.652 176.645 357.993 210.261 357.993 210.261C357.993 210.261 376.701 170.799 379.041 164.366C381.381 157.934 388.686 144.195 396.289 138.056C403.888 131.916 409.182 125.128 411.39 121.881C413.599 118.634 420.346 118.758 420.356 124.48C420.363 128.507 419.186 129.936 419.186 129.936C419.186 129.936 426.202 125.777 431.268 117.854C436.334 109.93 441.4 104.795 446.339 109.343C455.694 108.305 451.795 119.672 451.795 119.672C451.795 119.672 455.26 122.661 452.295 127.858C449.331 133.055 445.041 143.319 435.686 150.856C426.33 158.393 418.927 175.151 417.236 183.336C415.545 191.522 394.111 277 394.111 277H119.843C119.843 277 108.151 274.671 96.8455 259.859C85.54 245.047 35.6557 174.502 31.3696 168.266C27.0835 162.03 16.0092 150.69 12.855 145.658C7.72334 137.473 2.68833 125.549 1.09741 122.274C-1.24236 117.46 0.514195 112.981 3.04723 112.784C2.07405 110.641 3.43719 105.247 8.50326 105.444C8.50326 105.444 8.89323 98.6868 15.1948 99.729C15.7159 97.4548 20.5852 95.7672 23.7705 98.4935C26.6521 100.964 35.5522 116.532 43.065 124.027L48.6281 129.58C48.6281 129.58 53.8805 126.699 50.6676 118.768C48.8041 114.171 52.4207 109.802 56.1236 112.336C59.8266 114.869 63.5295 124.807 63.3328 129.873C63.1361 134.94 63.7227 140.202 66.4525 145.465C69.1822 150.728 127.936 207.048 127.936 207.048H127.932Z" fill="#00BE56"/>
<mask id="mask0_63_114" style="mask-type:luminance" maskUnits="userSpaceOnUse" x="0" y="33" width="454" height="244">
<path d="M127.932 207.048C127.932 207.048 148.103 176.648 151.903 172.262C155.702 167.876 165.348 159.107 191.075 152.678C216.802 146.248 230.247 143.032 230.247 143.032V125.201C230.247 125.201 211.539 120.525 207.447 117.308C203.354 114.092 198.091 109.709 202.477 91.2913C206.863 72.8767 216.802 48.0295 230.247 38.3805C243.692 28.735 282.865 32.8279 288.128 55.9185C293.39 79.0126 292.804 118.768 289.591 128.997C286.374 139.229 272.053 134.55 272.053 134.55L272.636 143.612C272.636 143.612 313.268 156.18 324.96 166.413C336.652 176.645 357.993 210.261 357.993 210.261C357.993 210.261 376.701 170.799 379.041 164.366C381.381 157.934 388.686 144.195 396.289 138.056C403.888 131.916 409.182 125.128 411.39 121.881C413.599 118.634 420.346 118.758 420.356 124.48C420.363 128.507 419.186 129.936 419.186 129.936C419.186 129.936 426.202 125.777 431.268 117.854C436.334 109.93 441.4 104.795 446.339 109.343C455.694 108.305 451.795 119.672 451.795 119.672C451.795 119.672 455.26 122.661 452.295 127.858C449.331 133.055 445.041 143.319 435.686 150.856C426.33 158.393 418.927 175.151 417.236 183.336C415.545 191.522 394.111 277 394.111 277H119.843C119.843 277 108.151 274.671 96.8455 259.859C85.54 245.047 35.6557 174.502 31.3696 168.266C27.0835 162.03 16.0092 150.69 12.855 145.658C7.72334 137.473 2.68833 125.549 1.09741 122.274C-1.24236 117.46 0.514195 112.981 3.04723 112.784C2.07405 110.641 3.43719 105.247 8.50326 105.444C8.50326 105.444 8.89323 98.6868 15.1948 99.729C15.7159 97.4548 20.5852 95.7672 23.7705 98.4935C26.6521 100.964 35.5522 116.532 43.065 124.027L48.6281 129.58C48.6281 129.58 53.8805 126.699 50.6676 118.768C48.8041 114.171 52.4207 109.802 56.1236 112.336C59.8266 114.869 63.5295 124.807 63.3328 129.873C63.1361 134.94 63.7227 140.202 66.4525 145.465C69.1822 150.728 127.936 207.048 127.936 207.048H127.932Z" fill="white"/>
</mask>
<g mask="url(#mask0_63_114)">
<path d="M219.232 69.657C219.232 69.657 213.948 79.4164 213.11 80.8555C211.305 83.9476 215.919 85.6386 215.919 85.6386" stroke="#01141B" stroke-width="3" stroke-linecap="round" stroke-linejoin="round"/>
<path d="M228.574 72.3867L226.765 75.9309" stroke="#01141B" stroke-width="3" stroke-linecap="round" stroke-linejoin="round"/>
<path d="M214.5 67.1101L212.692 70.6543" stroke="#01141B" stroke-width="3" stroke-linecap="round" stroke-linejoin="round"/>
<path d="M210.27 96.9751C210.27 96.9751 219.625 101.927 233.267 96.0813" stroke="#01141B" stroke-width="3" stroke-linecap="round" stroke-linejoin="round"/>
<path d="M201.304 147.708C201.304 147.708 242.523 171.092 299.523 150.925" stroke="#01141B" stroke-width="3" stroke-linecap="round" stroke-linejoin="round"/>
<path d="M181.426 204.708L153.949 285.389" stroke="#01141B" stroke-width="3" stroke-linecap="round" stroke-linejoin="round"/>
<path d="M292.507 212.311L323.493 286.853" stroke="#01141B" stroke-width="3" stroke-linecap="round" stroke-linejoin="round"/>
<path d="M128.029 205.457L146.543 223.81" stroke="#01141B" stroke-width="3" stroke-linecap="round" stroke-linejoin="round"/>
<path d="M358.052 206.593L346.001 239.205" stroke="#01141B" stroke-width="3" stroke-linecap="round" stroke-linejoin="round"/>
<path d="M452.765 118.54C452.765 118.54 449.224 117.664 444.775 122.927C440.379 128.124 433.211 135.92 428.794 139.816" stroke="#01141B" stroke-width="3" stroke-linecap="round" stroke-linejoin="round"/>
<path d="M448.606 107.528C448.606 107.528 445.618 107.528 442.826 110.972C441.145 113.043 429.184 128.773 424.898 132.8" stroke="#01141B" stroke-width="3" stroke-linecap="round" stroke-linejoin="round"/>
<path d="M421.971 125.07C421.971 125.07 417.747 131.564 407.356 135.398" stroke="#01141B" stroke-width="3" stroke-linecap="round" stroke-linejoin="round"/>
<path d="M212.692 52.509C212.692 52.509 232.484 51.3391 236.187 47.8329C236.187 47.8329 235.213 59.1073 247.295 67.1102C259.377 75.113 256.844 83.1056 256.844 83.1056C256.844 83.1056 267.366 76.2864 271.459 84.6654C275.552 93.0444 271.459 100.647 265.807 103.96C265.807 103.96 265.489 130.474 272.042 134.557C282.371 140.989 295.426 131.437 295.426 131.437C295.426 131.437 300.299 29.3183 299.519 29.125C298.739 28.9317 239.303 22.4991 238.913 23.4723C238.523 24.4454 213.593 47.0529 213.593 47.0529L212.689 52.509H212.692Z" fill="#01141B"/>
<path d="M46.5678 135.136C46.5678 135.136 41.695 144.578 44.618 155.252" stroke="#01141B" stroke-width="3" stroke-linecap="round" stroke-linejoin="round"/>
<path d="M6.55347 115.321C7.13669 116.1 16.6546 135.14 22.7939 140.012" stroke="#01141B" stroke-width="3" stroke-linecap="round" stroke-linejoin="round"/>
<path d="M12.7894 108.319C12.7894 108.319 22.5972 128.331 28.8331 133.204" stroke="#01141B" stroke-width="3" stroke-linecap="round" stroke-linejoin="round"/>
<path d="M19.8053 103.042C19.8053 103.042 29.0298 121.498 34.4859 125.525" stroke="#01141B" stroke-width="3" stroke-linecap="round" stroke-linejoin="round"/>
</g>
<path d="M123.905 43.0254C121.341 43.0254 118.953 43.7778 116.944 45.0719L116.53 20.5491H94.5988C92.9596 25.7635 88.0868 29.5493 82.3271 29.5493C76.5674 29.5493 71.698 25.767 70.0553 20.5491H44.3246C44.3246 20.5491 44.5144 29.0144 44.7974 40.0196C43.7656 39.7539 42.6854 39.6124 41.5742 39.6124C34.472 39.6124 28.7123 45.3721 28.7123 52.4743C28.7123 59.5764 34.472 65.3362 41.5742 65.3362C42.9408 65.3362 44.2591 65.1222 45.498 64.7253C45.8948 77.3146 46.3228 88.0576 46.6644 89.5346C46.9923 90.9599 57.0692 91.3153 69.5342 91.2049C69.4893 90.7631 69.4652 90.318 69.4652 89.8659C69.4652 82.7637 75.2249 77.004 82.3271 77.004C89.4292 77.004 95.189 82.7637 95.189 89.8659C95.189 90.0937 95.1821 90.3214 95.1717 90.5492C107.682 90.0799 117.7 89.538 117.7 89.538L117.317 66.934C119.242 68.0866 121.496 68.7492 123.905 68.7492C131.007 68.7492 136.767 62.9895 136.767 55.8873C136.767 48.7852 131.007 43.0254 123.905 43.0254Z" stroke="#01141B" stroke-width="3" stroke-linecap="round" stroke-linejoin="round"/>
<path d="M438.477 54.0618C438.477 49.5237 440.831 45.5378 444.379 43.2464L443.964 18.7236H422.033C422.416 17.5053 422.623 16.2078 422.623 14.8619C422.623 7.75972 416.864 2 409.762 2C402.659 2 396.9 7.75972 396.9 14.8619C396.9 16.2078 397.107 17.5053 397.49 18.7236H371.759C371.759 18.7236 371.949 27.1889 372.232 38.1941C377.774 39.6263 381.871 44.6578 381.871 50.6488C381.871 56.6397 378.116 61.2399 372.933 62.8998C373.329 75.4891 373.757 86.232 374.099 87.7091C374.427 89.1343 384.504 89.4898 396.969 89.3794C396.924 88.9376 396.9 88.4924 396.9 88.0404C396.9 80.9382 402.659 75.1785 409.762 75.1785C416.864 75.1785 422.623 80.9382 422.623 88.0404C422.623 88.2681 422.617 88.4959 422.606 88.7237C435.116 88.2543 445.134 87.7125 445.134 87.7125L444.751 65.1085C440.993 62.8619 438.477 58.7586 438.477 54.0618Z" stroke="#01141B" stroke-width="3" stroke-linecap="round" stroke-linejoin="round"/>
</svg>
