<svg width="204" height="204" viewBox="0 0 204 204" fill="none" xmlns="http://www.w3.org/2000/svg">
<path d="M102 27V92.5667L110.35 97.6167L108.883 108.433L156.8 153.2C156.8 153.2 177 143.417 177 102C177 60.5833 143.417 27 102 27Z" fill="#0FA7E4"/>
<path d="M102 177C143.421 177 177 143.421 177 102C177 60.5786 143.421 27 102 27C60.5786 27 27 60.5786 27 102C27 143.421 60.5786 177 102 177Z" stroke="#01141B" stroke-width="3" stroke-linecap="round" stroke-linejoin="round"/>
<path d="M102 27V43.6667" stroke="#01141B" stroke-width="3" stroke-linecap="round" stroke-linejoin="round"/>
<path d="M102 160.333V177" stroke="#01141B" stroke-width="3" stroke-linecap="round" stroke-linejoin="round"/>
<path d="M177 102H160.333" stroke="#01141B" stroke-width="3" stroke-linecap="round" stroke-linejoin="round"/>
<path d="M43.6667 102H27" stroke="#01141B" stroke-width="3" stroke-linecap="round" stroke-linejoin="round"/>
<path d="M64.5 37.0493L69.5 45.716" stroke="#01141B" stroke-width="3" stroke-linecap="round" stroke-linejoin="round"/>
<path d="M134.5 158.283L139.5 166.95" stroke="#01141B" stroke-width="3" stroke-linecap="round" stroke-linejoin="round"/>
<path d="M166.95 64.5L158.283 69.5" stroke="#01141B" stroke-width="3" stroke-linecap="round" stroke-linejoin="round"/>
<path d="M45.7167 134.5L37.05 139.5" stroke="#01141B" stroke-width="3" stroke-linecap="round" stroke-linejoin="round"/>
<path d="M37.05 64.5L45.7167 69.5" stroke="#01141B" stroke-width="3" stroke-linecap="round" stroke-linejoin="round"/>
<path d="M158.283 134.5L166.95 139.5" stroke="#01141B" stroke-width="3" stroke-linecap="round" stroke-linejoin="round"/>
<path d="M139.5 37.0493L134.5 45.716" stroke="#01141B" stroke-width="3" stroke-linecap="round" stroke-linejoin="round"/>
<path d="M69.5 158.283L64.5 166.95" stroke="#01141B" stroke-width="3" stroke-linecap="round" stroke-linejoin="round"/>
<path d="M102 111.433C107.21 111.433 111.433 107.21 111.433 102C111.433 96.7899 107.21 92.5664 102 92.5664C96.7901 92.5664 92.5667 96.7899 92.5667 102C92.5667 107.21 96.7901 111.433 102 111.433Z" stroke="#01141B" stroke-width="3" stroke-linecap="round" stroke-linejoin="round"/>
<path d="M102 92.5667V67" stroke="#01141B" stroke-width="3" stroke-linecap="round" stroke-linejoin="round"/>
<path d="M108.783 108.533L142.383 139.5" stroke="#01141B" stroke-width="3" stroke-linecap="round" stroke-linejoin="round"/>
<path d="M190.317 165.45L176.533 168.666" stroke="#01141B" stroke-width="3" stroke-linecap="round" stroke-linejoin="round"/>
<path d="M162.617 181.533C145.8 194.367 124.783 202 102 202C46.7667 202 2 157.233 2 102C2 46.7667 46.7667 2 102 2C157.233 2 202 46.7667 202 102C202 127.617 192.367 150.983 176.533 168.667L177 155.083" stroke="#01141B" stroke-width="3" stroke-linecap="round" stroke-linejoin="round"/>
</svg>
