<svg width="456" height="343" viewBox="0 0 456 343" fill="none" xmlns="http://www.w3.org/2000/svg">
<path d="M381.454 341C381.454 341 469.729 267.019 452.066 175.384C434.403 83.7501 372.284 110.005 364.16 116.494C346.068 130.968 359.066 167.002 390.694 141.753C413.61 123.462 401.519 48.3045 341.184 15.7596C312.676 0.379192 232.365 -10.1269 202.721 30.0235C169.578 74.9087 234.369 84.1389 229.365 45.4139C225.248 13.5467 148.685 9.76889 105.903 31.5287" stroke="#01141B" stroke-width="3" stroke-linecap="round" stroke-linejoin="round"/>
<path d="M93.7724 72.5563C93.7724 72.5563 51.3194 93.9273 47.9403 94.4855C44.5612 95.0437 35.2911 99.5491 27.4165 91.9537C19.542 84.3582 9.4246 72.8354 4.64004 68.0608C-0.144521 63.2862 1.27091 56.817 11.3883 51.4743L34.4439 39.3833C34.4439 39.3833 26.5693 26.455 23.4792 21.3914C20.3892 16.3277 28.2538 7.33672 40.913 16.6168C53.5622 25.8968 56.094 26.455 56.094 26.455L70.9959 22.2386" stroke="#01141B" stroke-width="3" stroke-linecap="round" stroke-linejoin="round"/>
<path d="M8.60724 70.9514L25.732 61.1929" stroke="#01141B" stroke-width="3" stroke-linecap="round" stroke-linejoin="round"/>
<path d="M18.2362 80.7299L33.2378 72.1775" stroke="#01141B" stroke-width="3" stroke-linecap="round" stroke-linejoin="round"/>
<path d="M30.1178 89.2823L40.5641 83.3315" stroke="#01141B" stroke-width="3" stroke-linecap="round" stroke-linejoin="round"/>
<path d="M61.5863 21.9795L91.0412 78.3476C92.8454 81.8064 97.2512 82.9527 100.511 80.7997L123.736 65.529C126.626 63.6351 127.553 59.8273 125.869 56.8071L96.673 4.38626C94.9685 1.3361 91.1907 0.13996 88.0409 1.65507L64.5666 12.9885C61.2174 14.6033 59.8618 18.6801 61.5863 21.9795Z" fill="#00BE56"/>
</svg>
