<svg width="471" height="277" viewBox="0 0 471 277" fill="none" xmlns="http://www.w3.org/2000/svg">
<path d="M384.371 65.0077C384.371 65.0077 403.481 70.3582 407.177 77.8746C410.873 85.391 406.632 97.581 405.522 102.336C401.444 119.792 394.31 122.083 393.163 128.963C393.163 128.963 385.264 213.275 382.97 227.319C380.675 241.367 372.935 267.913 362.041 277H82.1613C82.1613 277 114.65 199.802 122.677 183.747C130.705 167.692 143.7 160.816 157.843 155.079C171.986 149.346 187.655 142.084 187.655 142.084V110.742C187.655 110.742 173.13 113.037 170.839 100.424C169.309 92.0139 175.807 87.8107 175.807 87.8107C175.807 87.8107 176.761 67.935 178.101 62.5846C179.438 57.2341 187.316 47.034 198.931 43.4738C210.779 39.8425 224.54 40.6073 231.23 46.9121C237.921 53.217 251.106 84.5618 253.783 98.8941C256.46 113.226 251.106 125.075 234.862 128.706L235.051 141.701C235.051 141.701 294.678 163.107 299.836 166.257C304.997 169.411 310.442 172.85 320.764 188.329C328.304 199.643 331.082 203.809 331.082 203.809C331.082 203.809 356.308 124.689 357.168 120.675C358.028 116.661 354.589 96.8805 354.302 94.014C354.014 91.1476 355.161 84.2674 363.761 81.4009C363.761 81.4009 374.164 55.5081 375.226 50.7262C376.946 42.9864 389.917 40.4212 387.268 52.1611L384.371 64.9975" fill="#0FA7E4"/>
<mask id="mask0_63_143" style="mask-type:luminance" maskUnits="userSpaceOnUse" x="82" y="41" width="327" height="236">
<path d="M384.371 65.0077C384.371 65.0077 403.481 70.3582 407.177 77.8746C410.873 85.391 406.632 97.581 405.522 102.336C401.444 119.792 394.31 122.083 393.163 128.963C393.163 128.963 385.264 213.275 382.97 227.319C380.675 241.367 372.935 267.913 362.041 277H82.1613C82.1613 277 114.65 199.802 122.677 183.747C130.705 167.692 143.7 160.816 157.843 155.079C171.986 149.346 187.655 142.084 187.655 142.084V110.742C187.655 110.742 173.13 113.037 170.839 100.424C169.309 92.0139 175.807 87.8107 175.807 87.8107C175.807 87.8107 176.761 67.935 178.101 62.5846C179.438 57.2341 187.316 47.034 198.931 43.4738C210.779 39.8425 224.54 40.6073 231.23 46.9121C237.921 53.217 251.106 84.5618 253.783 98.8941C256.46 113.226 251.106 125.075 234.862 128.706L235.051 141.701C235.051 141.701 294.678 163.107 299.836 166.257C304.997 169.411 310.442 172.85 320.764 188.329C328.304 199.643 331.082 203.809 331.082 203.809C331.082 203.809 356.308 124.689 357.168 120.675C358.028 116.661 354.589 96.8805 354.302 94.014C354.014 91.1476 355.161 84.2674 363.761 81.4009C363.761 81.4009 374.164 55.5081 375.226 50.7262C376.946 42.9864 389.917 40.4212 387.268 52.1611L384.371 64.9975" fill="white"/>
</mask>
<g mask="url(#mask0_63_143)">
<path d="M177.143 143.045C182.369 144.5 205.5 169.08 224.157 192.638C233.474 204.405 238.777 147.918 239.065 138.459" stroke="#01141B" stroke-width="3" stroke-linecap="round" stroke-linejoin="round"/>
<path d="M155.931 214.327C155.931 215.474 136.438 278.922 136.438 278.922" stroke="#01141B" stroke-width="3" stroke-linecap="round" stroke-linejoin="round"/>
<path d="M287.415 207.447C287.415 208.594 300.793 246.623 300.793 246.623" stroke="#01141B" stroke-width="3" stroke-linecap="round" stroke-linejoin="round"/>
<path d="M330.798 200.824L319.329 236.305" stroke="#01141B" stroke-width="3" stroke-linecap="round" stroke-linejoin="round"/>
<path d="M224.347 74.4363C225.876 77.8747 229.697 85.7126 230.845 88.0037C231.992 90.2948 230.273 92.7823 225.112 96.2206" stroke="#01141B" stroke-width="3" stroke-linecap="round" stroke-linejoin="round"/>
<path d="M231.992 71.377L233.714 75.2011" stroke="#01141B" stroke-width="3" stroke-linecap="round" stroke-linejoin="round"/>
<path d="M210.397 76.7307L212.116 80.5515" stroke="#01141B" stroke-width="3" stroke-linecap="round" stroke-linejoin="round"/>
<path d="M204.854 104.059C204.854 104.059 217.947 113.064 235.43 104.059" stroke="#01141B" stroke-width="3" stroke-linecap="round" stroke-linejoin="round"/>
<path d="M175.807 87.8141C175.807 87.8141 191.479 86.4774 194.667 64.6896C211.257 68.5104 233.139 66.4088 237.535 50.5469L201.608 26.468L167.207 53.2238L161.664 76.7308L175.807 87.8141Z" fill="#01141B"/>
<path d="M362.458 80.1692C362.458 80.1692 376.472 76.9846 379.02 76.7308C381.568 76.477 385.518 77.4956 385.9 82.7175C386.283 87.9394 386.794 93.4185 385.9 95.4592C385.007 97.4999 380.675 98.6437 377.237 93.5471" stroke="#01141B" stroke-width="3" stroke-linecap="round" stroke-linejoin="round"/>
<path d="M386.242 63.5896L380.868 76.6934" stroke="#01141B" stroke-width="3" stroke-linecap="round" stroke-linejoin="round"/>
<path d="M395.772 67.8743C395.772 67.8743 388.875 83.4722 386.855 89.7229C385.454 94.0548 395.264 99.852 400.422 84.4367" stroke="#01141B" stroke-width="3" stroke-linecap="round" stroke-linejoin="round"/>
<path d="M382.012 97.1174C382.012 97.1174 386.726 104.059 384.371 113.995" stroke="#01141B" stroke-width="3" stroke-linecap="round" stroke-linejoin="round"/>
</g>
<path d="M31.709 68.3209C75.2811 47.6804 108.152 66.7912 111.594 90.1086C115.036 113.426 94.7777 136.74 69.1692 145.529C43.5606 154.318 9.15983 146.676 3.04451 118.391C-3.07081 90.1052 19.1264 74.2805 31.7124 68.3209H31.709Z" stroke="#01141B" stroke-width="3" stroke-linecap="round" stroke-linejoin="round"/>
<path d="M406.456 43.66C417.96 43.66 427.286 34.3341 427.286 22.83C427.286 11.3259 417.96 2 406.456 2C394.952 2 385.626 11.3259 385.626 22.83C385.626 34.3341 394.952 43.66 406.456 43.66Z" stroke="#01141B" stroke-width="3" stroke-linecap="round" stroke-linejoin="round"/>
<path d="M448.119 99.5643C459.624 99.5643 468.95 90.2384 468.95 78.7343C468.95 67.2302 459.624 57.9043 448.119 57.9043C436.615 57.9043 427.29 67.2302 427.29 78.7343C427.29 90.2384 436.615 99.5643 448.119 99.5643Z" stroke="#01141B" stroke-width="3" stroke-linecap="round" stroke-linejoin="round"/>
<path d="M339.225 52.6012C350.729 52.6012 360.055 43.2753 360.055 31.7712C360.055 20.2671 350.729 10.9412 339.225 10.9412C327.721 10.9412 318.395 20.2671 318.395 31.7712C318.395 43.2753 327.721 52.6012 339.225 52.6012Z" stroke="#01141B" stroke-width="3" stroke-linecap="round" stroke-linejoin="round"/>
<path d="M397.515 22.539L404.405 30.4547C404.405 30.4547 409.245 19.0194 415.401 15.2053" stroke="#01141B" stroke-width="3" stroke-linecap="round" stroke-linejoin="round"/>
<path d="M36.6771 96.3594C36.6771 96.3594 32.5517 80.1963 48.2884 78.2436C57.2837 77.1268 62.3466 83.2997 61.7611 92.982C61.2873 100.82 55.3919 104.894 60.2653 115.612" stroke="#01141B" stroke-width="3" stroke-linecap="round" stroke-linejoin="round"/>
<circle cx="64.1774" cy="124.74" r="1.18448" fill="#01141B"/>
</svg>
