<svg width="609" height="277" viewBox="0 0 609 277" fill="none" xmlns="http://www.w3.org/2000/svg">
<path d="M181.662 72.2228L182.427 81.1985C182.427 81.1985 171.733 80.6269 174.023 94.1852C175.193 101.105 183.952 102.014 183.952 102.014L186.204 131.241C186.204 131.241 157.596 133.774 146.328 137.403C135.059 141.032 123.412 153.065 115.197 167.577C106.986 182.092 101.639 192.786 101.639 192.786C101.639 192.786 77.5186 160.4 73.5076 151.614C69.4966 142.828 64.9141 130.034 55.3634 124.494C45.8128 118.955 35.0007 110.26 31.3009 114.754C28.6257 118.001 31.3009 121.819 31.3009 121.819C31.3009 121.819 20.9893 118.955 17.1677 115.136C13.3495 111.318 8.57415 102.721 3.79884 104.06C-0.976477 105.4 -1.54803 111.7 3.79884 118.001C9.1457 124.301 13.1567 127.93 13.1567 127.93C13.1567 127.93 8.19199 139.006 12.5851 147.221C16.9783 155.436 26.5255 161.926 31.8758 164.983C37.226 168.04 44.2909 175.487 50.7843 190.003C57.2776 204.518 84.0559 256.654 89.6091 264.977C97.6311 277 103.932 277 103.932 277H327.759C327.759 277 303.961 210.166 298.482 194.697C293.003 179.228 280.51 147.201 264.162 141.032C243.917 133.392 216.798 132.438 216.798 132.438L216.987 121.498C216.987 121.498 231.502 119.78 240.285 112.711C247.59 106.834 247.729 92.7275 242.96 78.9089C237.421 62.8649 230.163 44.342 214.122 44.342C201.707 44.342 194.071 50.4531 194.071 50.4531C194.071 50.4531 191.95 44.1965 182.802 39.9488C172.108 34.9841 155.875 51.9818 166.187 66.3043C171.933 74.2824 181.656 72.2262 181.656 72.2262L181.662 72.2228Z" fill="#0FA7E4"/>
<mask id="mask0_63_86" style="mask-type:luminance" maskUnits="userSpaceOnUse" x="0" y="39" width="328" height="238">
<path d="M181.662 72.2228L182.427 81.1985C182.427 81.1985 171.733 80.6269 174.023 94.1852C175.193 101.105 183.952 102.014 183.952 102.014L186.204 131.241C186.204 131.241 157.596 133.774 146.328 137.403C135.059 141.032 123.412 153.065 115.197 167.577C106.986 182.092 101.639 192.786 101.639 192.786C101.639 192.786 77.5186 160.4 73.5076 151.614C69.4966 142.828 64.9141 130.034 55.3634 124.494C45.8128 118.955 35.0007 110.26 31.3009 114.754C28.6257 118.001 31.3009 121.819 31.3009 121.819C31.3009 121.819 20.9893 118.955 17.1677 115.136C13.3495 111.318 8.57415 102.721 3.79884 104.06C-0.976477 105.4 -1.54803 111.7 3.79884 118.001C9.1457 124.301 13.1567 127.93 13.1567 127.93C13.1567 127.93 8.19199 139.006 12.5851 147.221C16.9783 155.436 26.5255 161.926 31.8758 164.983C37.226 168.04 44.2909 175.487 50.7843 190.003C57.2776 204.518 84.0559 256.654 89.6091 264.977C97.6311 277 103.932 277 103.932 277H327.759C327.759 277 303.961 210.166 298.482 194.697C293.003 179.228 280.51 147.201 264.162 141.032C243.917 133.392 216.798 132.438 216.798 132.438L216.987 121.498C216.987 121.498 231.502 119.78 240.285 112.711C247.59 106.834 247.729 92.7275 242.96 78.9089C237.421 62.8649 230.163 44.342 214.122 44.342C201.707 44.342 194.071 50.4531 194.071 50.4531C194.071 50.4531 191.95 44.1965 182.802 39.9488C172.108 34.9841 155.875 51.9818 166.187 66.3043C171.933 74.2824 181.656 72.2262 181.656 72.2262L181.662 72.2228Z" fill="white"/>
</mask>
<g mask="url(#mask0_63_86)">
<path d="M178.987 128.522C178.987 128.522 182.139 150.295 201.044 149.436C219.95 148.577 225.107 129.706 225.107 129.706" stroke="#01141B" stroke-width="3" stroke-linecap="round" stroke-linejoin="round"/>
<path d="M170.106 128.522C170.106 128.522 174.472 158.679 200.659 157.488C226.845 156.298 233.988 130.162 233.988 130.162" stroke="#01141B" stroke-width="3" stroke-linecap="round" stroke-linejoin="round"/>
<path d="M149.767 186.103L138.022 248.267" stroke="#01141B" stroke-width="3" stroke-linecap="round" stroke-linejoin="round"/>
<path d="M254.33 204.437L272.951 282.069" stroke="#01141B" stroke-width="3" stroke-linecap="round" stroke-linejoin="round"/>
<path d="M100.448 188.968L115.106 210.166" stroke="#01141B" stroke-width="3" stroke-linecap="round" stroke-linejoin="round"/>
<path d="M227.941 65.7839C227.941 65.7839 233.271 74.7799 233.988 75.8419C235.706 78.3885 230.359 81.6994 230.359 81.6994" stroke="#01141B" stroke-width="3" stroke-linecap="round" stroke-linejoin="round"/>
<path d="M233.416 63.3652L234.786 65.7833" stroke="#01141B" stroke-width="3" stroke-linecap="round" stroke-linejoin="round"/>
<path d="M219.662 69.656L221.032 72.0775" stroke="#01141B" stroke-width="3" stroke-linecap="round" stroke-linejoin="round"/>
<path d="M220.349 91.6622C220.349 91.6622 231.556 93.4276 237.81 91.2327C238.286 93.9551 236.758 97.8681 233.322 98.2976C223.7 99.5015 220.349 91.6622 220.349 91.6622Z" stroke="#01141B" stroke-width="3" stroke-linecap="round" stroke-linejoin="round"/>
<path d="M10.9415 128.059C10.9415 128.059 16.0144 123.98 21.2768 122.966C23.9181 122.455 38.0851 127.518 39.4514 131.306C40.2799 133.599 38.4977 135.888 38.4977 135.888" stroke="#01141B" stroke-width="3" stroke-linecap="round" stroke-linejoin="round"/>
<path d="M9.34185 135.891C9.34185 135.891 14.6887 129.412 21.5642 129.412C25.8593 129.412 37.7333 134.299 38.4334 137.42C39.678 142.966 34.7403 143.403 34.7403 143.403" stroke="#01141B" stroke-width="3" stroke-linecap="round" stroke-linejoin="round"/>
<path d="M10.1704 145.374C10.1704 145.374 12.9707 139.774 16.9817 138.563C20.9927 137.352 30.6008 140.88 31.8792 141.174C34.9365 141.874 36.526 148.367 28.3789 146.967" stroke="#01141B" stroke-width="3" stroke-linecap="round" stroke-linejoin="round"/>
<path d="M42.9483 131.37C42.9483 131.37 40.3544 143.846 48.8735 150.339" stroke="#01141B" stroke-width="3" stroke-linecap="round" stroke-linejoin="round"/>
<path d="M182.427 81.1983C182.427 81.1983 211.647 81.1915 218.522 53.1788C229.727 58.9078 234.786 57.1256 234.786 57.1256L221.032 30.0057L177.269 28.4771L150.403 41.3352C150.403 41.3352 148.239 64.2513 148.621 64.5726C149.003 64.8939 164.536 73.7411 164.536 73.7411L182.423 81.1983H182.427Z" fill="#01141B"/>
</g>
<path d="M352.302 277C352.302 277 366.341 202.144 380.663 172.352C394.986 142.561 425.065 113.625 449.702 107.896V95.0038C449.702 95.0038 433.293 93.0186 427.645 80.1063C423.634 70.9378 430.222 42.0052 432.515 32.8401C434.808 23.6717 439.391 17.3711 448.272 16.2246C457.153 15.0781 478.936 10.3434 487.803 29.1166C493.488 41.1496 491.814 54.3257 491.814 54.3257C491.814 54.3257 494.757 59.4189 492.044 64.0014C489.332 68.584 487.55 69.0947 487.55 69.0947L489.461 102.454C489.461 102.454 522.763 118.962 537.937 141.986C562.859 179.799 579.475 277 579.475 277H352.302Z" fill="#E69900"/>
<mask id="mask1_63_86" style="mask-type:luminance" maskUnits="userSpaceOnUse" x="352" y="14" width="228" height="263">
<path d="M352.302 277C352.302 277 366.341 202.144 380.663 172.352C394.986 142.561 425.065 113.625 449.702 107.896V95.0038C449.702 95.0038 433.293 93.0186 427.645 80.1063C423.634 70.9378 430.222 42.0052 432.515 32.8401C434.808 23.6717 439.391 17.3711 448.272 16.2246C457.153 15.0781 478.936 10.3434 487.803 29.1166C493.488 41.1496 491.814 54.3257 491.814 54.3257C491.814 54.3257 494.757 59.4189 492.044 64.0014C489.332 68.584 487.55 69.0947 487.55 69.0947L489.461 102.454C489.461 102.454 522.763 118.962 537.937 141.986C562.859 179.799 579.475 277 579.475 277H352.302Z" fill="white"/>
</mask>
<g mask="url(#mask1_63_86)">
<path d="M403.008 176.363C403.008 176.363 388.11 223.917 384.674 282.357" stroke="#01141B" stroke-width="3" stroke-linecap="round" stroke-linejoin="round"/>
<path d="M502.701 176.363L525.045 282.357" stroke="#01141B" stroke-width="3" stroke-linecap="round" stroke-linejoin="round"/>
<path d="M446.55 105.89C446.55 105.89 447.409 135.827 455.719 145.926C464.025 156.024 476.917 111.335 497.543 105.89" stroke="#01141B" stroke-width="3" stroke-linecap="round" stroke-linejoin="round"/>
<path d="M443.496 43.2498C443.496 43.2498 439.479 55.4687 438.914 57.0008C437.578 60.6296 444.454 63.3047 444.454 63.3047" stroke="#01141B" stroke-width="3" stroke-linecap="round" stroke-linejoin="round"/>
<path d="M451.518 43.2498L450.9 47.068" stroke="#01141B" stroke-width="3" stroke-linecap="round" stroke-linejoin="round"/>
<path d="M435.326 41.3389L434.71 45.1571" stroke="#01141B" stroke-width="3" stroke-linecap="round" stroke-linejoin="round"/>
<path d="M437.49 73.1294C437.49 73.1294 451.414 76.1867 461.154 66.2539" stroke="#01141B" stroke-width="3" stroke-linecap="round" stroke-linejoin="round"/>
<path d="M435.018 22.8124C435.018 22.8124 437.957 30.6416 448.268 31.5987C458.58 32.5558 470.613 29.1164 473.095 32.9346C475.578 36.7528 479.399 48.2142 479.399 48.2142C479.399 48.2142 489.139 48.7858 491.814 54.3254C500.219 53.2736 495.443 15.7475 495.443 15.7475L441.596 11.5471L435.018 22.8158V22.8124Z" fill="#01141B"/>
</g>
<path d="M549.396 97.5807C571.453 127.66 608.982 107.033 606.405 80.6676C605.198 68.3268 597.237 51.4577 575.18 49.4522C544.035 46.6215 541.948 77.2383 541.948 77.2383C541.948 77.2383 538.225 87.2658 523.615 90.7018C530.778 98.1489 549.399 97.5773 549.399 97.5773L549.396 97.5807Z" stroke="#01141B" stroke-width="3" stroke-linecap="round" stroke-linejoin="round"/>
<path d="M565.071 71.2285C565.071 71.2285 567.141 59.6419 577.821 62.9833C583.925 64.8941 585.373 70.3356 582.17 76.3825C579.576 81.2762 574.601 82.1725 574.601 90.4785" stroke="#01141B" stroke-width="3" stroke-linecap="round" stroke-linejoin="round"/>
<ellipse cx="574.446" cy="97.4862" rx="1.18368" ry="1.18368" fill="#01141B"/>
<path d="M298.482 77.4344C298.482 77.4344 280.642 83.8398 271.798 78.493C285.025 71.3976 286.033 60.7513 286.033 60.7513C286.033 60.7513 289.181 26.8235 289.181 18.4228C289.181 10.022 290.866 4.60748 304.843 3.71803C326.606 2.33143 345.616 2 350.868 2C356.12 2 363.855 2.18939 364.369 14.8548C365.184 34.8996 364.758 58.6375 363.977 65.0971C363.195 71.56 356.32 76.1425 342.19 76.5247C328.057 76.9068 298.482 77.4378 298.482 77.4378V77.4344Z" stroke="#01141B" stroke-width="3" stroke-linecap="round" stroke-linejoin="round"/>
<path d="M307.326 21.4766L343.039 19.7585" stroke="#01141B" stroke-width="3" stroke-linecap="round" stroke-linejoin="round"/>
<path d="M299.878 34.4636L349.15 31.9812" stroke="#01141B" stroke-width="3" stroke-linecap="round" stroke-linejoin="round"/>
<path d="M297.203 47.261L356.026 43.8215" stroke="#01141B" stroke-width="3" stroke-linecap="round" stroke-linejoin="round"/>
<path d="M320.694 59.4829L325.182 64.6403C325.182 64.6403 328.334 57.1933 332.345 54.7109" stroke="#01141B" stroke-width="3" stroke-linecap="round" stroke-linejoin="round"/>
</svg>
