<svg width="204" height="204" viewBox="0 0 204 204" fill="none" xmlns="http://www.w3.org/2000/svg">
<path d="M157.65 152.267C143.933 167.45 124.067 177 102 177C60.5833 177 27 143.417 27 102C27 84.1334 33.25 67.7334 43.6667 54.8501" stroke="#01141B" stroke-width="3" stroke-linecap="round" stroke-linejoin="round"/>
<path d="M54.8666 43.6667C67.75 33.25 84.15 27 102 27C143.417 27 177 60.5833 177 102C177 116.067 173.133 129.233 166.383 140.483" stroke="#01141B" stroke-width="3" stroke-linecap="round" stroke-linejoin="round"/>
<path d="M190.317 165.45L176.533 168.666" stroke="#01141B" stroke-width="3" stroke-linecap="round" stroke-linejoin="round"/>
<path d="M41.1667 22.6333C58.0167 9.68333 79.1167 2 102 2C157.233 2 202 46.7667 202 102C202 127.617 192.367 150.983 176.533 168.667L177 155.083" stroke="#01141B" stroke-width="3" stroke-linecap="round" stroke-linejoin="round"/>
<path d="M102 160.333C134.217 160.333 160.333 134.216 160.333 102C160.333 69.7832 134.217 43.6665 102 43.6665C69.7834 43.6665 43.6667 69.7832 43.6667 102C43.6667 134.216 69.7834 160.333 102 160.333Z" fill="#0FA7E4"/>
<path d="M13.6833 38.5502L27.4667 35.3335" stroke="#01141B" stroke-width="3" stroke-linecap="round" stroke-linejoin="round"/>
<path d="M163.1 181.167C146.2 194.234 125 202 102 202C46.7667 202 2 157.234 2 102C2 76.3835 11.6333 53.0168 27.4667 35.3335L27 48.9168" stroke="#01141B" stroke-width="3" stroke-linecap="round" stroke-linejoin="round"/>
<path d="M80.6667 124.9C82.1167 132.717 88.95 138.384 96.9 138.384H104.567C112.4 138.384 119.15 132.883 120.733 125.217L120.767 125.083C122.283 117.75 118.683 110.317 111.983 106.967L92.0334 97.0002C85.3334 93.6502 81.7334 86.2168 83.25 78.8835L83.2834 78.7502C84.8667 71.0835 91.6167 65.5835 99.45 65.5835H107.117C115.067 65.5835 121.9 71.2502 123.35 79.0668" stroke="#01141B" stroke-width="3" stroke-linecap="round" stroke-linejoin="round"/>
<path d="M102 56.9839V147.017" stroke="#01141B" stroke-width="3" stroke-linecap="round" stroke-linejoin="round"/>
</svg>
