<svg width="435" height="414" viewBox="0 0 435 414" fill="none" xmlns="http://www.w3.org/2000/svg">
<path d="M64.6959 2C64.6959 2 -25.1321 142.645 10.2562 220.677C45.6445 298.709 157.857 263.64 188.096 205.248C214.413 154.431 145.452 161.696 102.809 202.524C81.4719 222.952 20.3657 290.485 54.7161 370.384C79.2065 427.338 143.576 413.466 178.116 400.323" stroke="#01141B" stroke-width="3" stroke-linecap="round" stroke-linejoin="round"/>
<path d="M234.272 350.444L242.146 355.973C242.775 356.412 243.563 356.552 244.302 356.352L253.583 353.807C255.539 353.268 257.316 355.104 256.717 357.041L253.892 366.242C253.673 366.97 253.783 367.769 254.202 368.407L259.481 376.451C260.589 378.148 259.401 380.393 257.375 380.433L247.755 380.593C246.986 380.603 246.268 380.962 245.789 381.551L239.771 389.066C238.504 390.642 235.989 390.213 235.34 388.297L232.216 379.196C231.967 378.467 231.408 377.898 230.69 377.629L221.688 374.226C219.792 373.507 219.432 370.982 221.049 369.765L228.743 363.976C229.352 363.517 229.731 362.809 229.761 362.04L230.21 352.43C230.31 350.404 232.596 349.286 234.252 350.444H234.272Z" fill="#E69900"/>
<path d="M273.183 331.363L281.057 336.891C281.686 337.331 282.475 337.47 283.213 337.271L292.494 334.726C294.45 334.187 296.227 336.023 295.628 337.959L292.804 347.161C292.584 347.889 292.694 348.687 293.113 349.326L298.392 357.37C299.5 359.066 298.313 361.312 296.287 361.352L286.666 361.511C285.898 361.521 285.179 361.881 284.7 362.47L278.682 369.984C277.415 371.561 274.9 371.132 274.251 369.216L271.128 360.114C270.878 359.386 270.319 358.817 269.601 358.547L260.599 355.144C258.703 354.426 258.344 351.901 259.96 350.683L267.655 344.895C268.263 344.436 268.643 343.728 268.673 342.959L269.122 333.349C269.221 331.323 271.507 330.205 273.163 331.363H273.183Z" fill="#E69900"/>
<path d="M312.085 312.281L319.959 317.81C320.587 318.249 321.376 318.389 322.114 318.189L331.395 315.644C333.352 315.106 335.128 316.942 334.529 318.878L331.705 328.079C331.485 328.808 331.595 329.606 332.014 330.245L337.294 338.289C338.401 339.985 337.214 342.231 335.188 342.27L325.567 342.43C324.799 342.44 324.08 342.799 323.601 343.388L317.583 350.903C316.316 352.48 313.801 352.051 313.152 350.135L310.029 341.033C309.779 340.304 309.22 339.736 308.502 339.466L299.5 336.063C297.604 335.345 297.245 332.82 298.861 331.602L306.556 325.814C307.165 325.355 307.544 324.646 307.574 323.878L308.023 314.267C308.123 312.241 310.408 311.124 312.065 312.281H312.085Z" fill="#E69900"/>
<path d="M350.996 293.2L358.87 298.729C359.499 299.168 360.287 299.308 361.025 299.108L370.307 296.563C372.263 296.024 374.039 297.86 373.44 299.797L370.616 308.998C370.396 309.726 370.506 310.525 370.925 311.164L376.205 319.207C377.312 320.904 376.125 323.149 374.099 323.189L364.478 323.349C363.71 323.359 362.991 323.718 362.512 324.307L356.495 331.822C355.227 333.398 352.712 332.969 352.064 331.053L348.94 321.952C348.69 321.223 348.132 320.654 347.413 320.385L338.411 316.982C336.515 316.263 336.156 313.738 337.773 312.521L345.467 306.733C346.076 306.273 346.455 305.565 346.485 304.796L346.934 295.186C347.034 293.16 349.319 292.042 350.976 293.2H350.996Z" fill="#E69900"/>
<path d="M389.897 274.119L397.771 279.647C398.4 280.086 399.188 280.226 399.927 280.027L409.208 277.482C411.164 276.943 412.94 278.779 412.341 280.715L409.517 289.917C409.298 290.645 409.407 291.443 409.827 292.082L415.106 300.126C416.214 301.822 415.026 304.068 413 304.108L403.38 304.267C402.611 304.277 401.893 304.637 401.414 305.226L395.396 312.74C394.128 314.317 391.613 313.888 390.965 311.972L387.841 302.87C387.592 302.142 387.033 301.573 386.314 301.304L377.312 297.9C375.416 297.182 375.057 294.657 376.674 293.439L384.368 287.651C384.977 287.192 385.356 286.484 385.386 285.715L385.835 276.105C385.935 274.079 388.22 272.961 389.877 274.119H389.897Z" fill="#E69900"/>
<path d="M205.251 361.502L225.71 400.642C229.013 406.969 236.757 409.504 243.164 406.361L425.844 316.732C432.7 313.369 435.265 304.896 431.423 298.3L409.298 260.297C405.825 254.339 398.34 252.063 392.142 255.097L211.129 343.598C204.473 346.851 201.818 354.955 205.251 361.511V361.502Z" stroke="#01141B" stroke-width="3" stroke-linecap="round" stroke-linejoin="round"/>
</svg>
