<svg width="163" height="202" viewBox="0 0 163 202" fill="none" xmlns="http://www.w3.org/2000/svg">
<path d="M13.0082 135.736C46.8925 169.62 101.835 169.62 135.736 135.736C169.62 101.851 169.62 46.9091 135.736 13.0083L13.0082 135.736Z" stroke="#01141B" stroke-width="3" stroke-linecap="round" stroke-linejoin="round"/>
<path d="M74.3802 148.76C115.459 148.76 148.76 115.459 148.76 74.3802C148.76 33.3011 115.459 0 74.3802 0C33.3011 0 0 33.3011 0 74.3802C0 115.459 33.3011 148.76 74.3802 148.76Z" fill="#0FA7E4"/>
<mask id="mask0_63_224" style="mask-type:luminance" maskUnits="userSpaceOnUse" x="0" y="0" width="149" height="149">
<path d="M74.3802 148.76C115.459 148.76 148.76 115.459 148.76 74.3802C148.76 33.3011 115.459 0 74.3802 0C33.3011 0 0 33.3011 0 74.3802C0 115.459 33.3011 148.76 74.3802 148.76Z" fill="white"/>
</mask>
<g mask="url(#mask0_63_224)">
<path d="M74.2314 -12.0503C74.2314 -12.0503 75.4711 11.6026 71.124 19.0571C66.7768 26.5117 56.1818 33.0571 56.8099 37.4208C57.438 41.7844 73.9173 49.239 87.6198 47.9993C101.322 46.7596 99.124 31.8175 111.273 42.0819C123.421 52.3464 122.777 57.6357 129.934 57.0241C137.091 56.4125 152.017 49.553 152.017 49.553" stroke="#01141B" stroke-width="3" stroke-linecap="round" stroke-linejoin="round"/>
<path d="M-3.23975 74.3804C-3.23975 74.3804 24.1322 76.6283 30.0495 78.182C35.9669 79.7357 37.2065 94.0498 41.5536 95.9176C45.9008 97.7853 56.4958 95.2895 58.6611 93.1242C60.8264 90.9589 60.8429 80.9919 64.876 79.7523C68.909 78.5126 86.6611 76.9589 89.4545 80.3804C92.2479 83.8019 86.347 99.9837 85.7189 102.165C85.0908 104.347 71.7189 109.008 70.7768 111.19C69.8346 113.372 70.2644 121.141 75.5041 122.694C80.7437 124.248 101.554 120.513 104.364 121.141C107.173 121.769 119.124 134.645 119.124 134.645" stroke="#01141B" stroke-width="3" stroke-linecap="round" stroke-linejoin="round"/>
</g>
<path d="M33.0579 183.471H132.231C141.355 183.471 148.76 190.876 148.76 200H16.529C16.529 190.876 23.9339 183.471 33.0579 183.471Z" stroke="#01141B" stroke-width="3" stroke-linecap="round" stroke-linejoin="round"/>
<path d="M90.909 159.504V183.471" stroke="#01141B" stroke-width="3" stroke-linecap="round" stroke-linejoin="round"/>
<path d="M74.3801 183.472V161.158" stroke="#01141B" stroke-width="3" stroke-linecap="round" stroke-linejoin="round"/>
</svg>
