<svg width="150" height="35" viewBox="0 0 150 35" fill="none" xmlns="http://www.w3.org/2000/svg">
<path d="M9.47598 27.2817H0L7.64192 0.076416H27.1288L25.2183 6.49563H15.2838L14.0611 11.1572H23.9956L22.3144 17.1179H12.3799L9.47598 27.2817Z" fill="#C7C7C7"/>
<path d="M31.4847 27.2817H22.0851L27.6637 7.41266H37.0633L31.4847 27.2817ZM37.5982 5.50218H28.1987L29.7271 0.076416H39.1266L37.5982 5.50218Z" fill="#C7C7C7"/>
<path d="M55.9389 27.2817H46.6921L47.3799 25.0655C45.5459 26.8231 43.1004 27.8166 40.5786 27.7402C37.5218 27.7402 35.6114 26.2882 35.6114 23.155C35.8406 18.952 36.9869 14.8253 38.9738 11.0808C40.4258 8.48253 43.1769 6.87773 46.1572 7.03057C48.8319 7.03057 50.8188 8.17686 51.583 9.62882L54.1812 0H63.5808L55.9389 27.2817ZM48.8319 13.2969C47.8384 13.2205 46.9978 13.8319 46.6921 14.7489C45.928 16.2773 45.4694 17.9585 45.393 19.7162C45.393 20.4804 46.0044 21.0917 46.7686 21.1681H46.845C47.3799 21.1681 47.9913 21.0153 48.4498 20.7096L50.3603 14.214C49.9782 13.6026 49.4432 13.2969 48.8319 13.2969Z" fill="#C7C7C7"/>
<path d="M82.5328 18.5699H69.5415C69.2358 19.4105 69.083 20.3275 69.0066 21.1681C68.9301 21.8559 69.3887 22.4672 70.0764 22.6201C70.1529 22.6201 70.3057 22.6201 70.3821 22.6201C71.6812 22.6201 72.2926 22.0851 72.8275 20.1747H82.0743C80.928 25.8297 74.2031 27.7402 70.0764 27.7402C64.4978 27.7402 60.1419 26.976 60.1419 21.5502C60.3712 17.8057 61.5175 14.214 63.5808 11.1572C65.9498 8.024 70.0764 6.87772 73.8974 6.87772C79.7053 6.87772 83.5262 8.10042 83.5262 13.0677C83.3734 14.9017 83.0677 16.8122 82.5328 18.5699ZM73.1332 11.9214C71.9869 11.9214 71.1463 12.6856 70.6878 14.7489H74.5852C74.738 14.2904 74.8144 13.8319 74.8144 13.3733C74.738 12.2271 74.1267 11.9214 73.1332 11.9214Z" fill="#C7C7C7"/>
<path d="M92.0087 27.2817H82.5327L90.1747 0.076416H99.5742L92.0087 27.2817Z" fill="#C7C7C7"/>
<path d="M104.389 27.2817H94.9891L100.568 7.41266H109.967L104.389 27.2817ZM110.502 5.50218H101.026L102.555 0.076416H111.954L110.502 5.50218Z" fill="#C7C7C7"/>
<path d="M127.391 7.33624L128.231 11.845H121.048L118.908 19.4105C118.755 20.0218 118.603 20.5568 118.603 21.1681C118.603 22.0852 118.985 22.3144 120.207 22.3144H122.194L120.819 27.2052H112.413C109.662 27.2052 108.592 25.8297 108.592 23.8428C108.592 22.9258 108.745 21.9323 108.974 21.0917L114.094 2.98035H123.493L122.271 7.41266H127.391V7.33624Z" fill="#C7C7C7"/>
<path d="M140.153 7.33624L135.033 18.3406L135.186 7.33624H125.633L127.467 27.2052C127.238 28.3515 126.856 29.0393 126.092 29.345C125.022 29.6507 123.952 29.7271 122.882 29.5742H122.729L121.201 35H127.62C131.441 35 133.275 33.0895 135.95 28.8865L149.629 7.33624H140.153Z" fill="#C7C7C7"/>
</svg>
