<svg width="196" height="60" viewBox="0 0 196 60" fill="none" xmlns="http://www.w3.org/2000/svg">
<path d="M95.9953 3.72642H101.051V19.7483C101.051 22.5718 100.198 24.7387 98.4248 26.1833C94.4193 29.1382 89.0349 29.1382 85.0295 26.1833C83.2565 24.7387 82.4029 22.5718 82.4029 19.7483V3.72642H87.459V19.7483C87.459 21.3899 87.853 22.5062 88.6409 23.2285C90.4795 24.6731 93.1061 24.6731 94.9446 23.2285C95.7326 22.5062 96.0609 21.3242 96.0609 19.7483L95.9953 3.72642ZM112.148 13.5103C110.901 13.4446 109.653 14.1012 109.062 15.2175V28.0219H104.203V9.96445H108.734L108.865 12C110.113 10.4241 112.083 9.5048 114.053 9.57047C115.563 9.5048 117.073 10.0301 118.19 11.0807C119.24 12.1313 119.765 13.9043 119.765 16.4651V27.9562H114.906V16.5308C114.906 15.3489 114.644 14.5609 114.184 14.1669C113.659 13.7073 112.936 13.4446 112.148 13.5103ZM123.049 5.30234C123.049 4.64571 123.311 3.98907 123.771 3.52943C124.887 2.61014 126.594 2.61014 127.711 3.52943C128.17 3.98907 128.499 4.64571 128.433 5.30234C128.433 5.95898 128.17 6.61561 127.711 7.07525C126.594 7.99454 124.887 7.99454 123.771 7.07525C123.311 6.61561 123.049 5.95898 123.049 5.30234ZM128.236 9.96445V28.0219H123.377V9.96445H128.236ZM140.778 27.9562C139.858 28.2846 138.874 28.4159 137.889 28.4159C136.51 28.4816 135.196 28.0219 134.08 27.1683C133.161 26.3803 132.701 25.0014 132.701 23.0315V13.5103H130.009V9.96445H132.701V5.49933H137.56V9.96445H140.646V13.5103H137.56V22.5718C137.495 23.0971 137.626 23.6881 138.02 24.0821C138.414 24.3447 138.939 24.4761 139.399 24.4761C139.661 24.4761 139.924 24.4761 140.187 24.4104C140.449 24.4104 140.646 24.3448 140.778 24.3448V27.9562ZM158.244 25.1327C157.522 26.052 156.668 26.84 155.618 27.3653C154.239 28.0876 152.729 28.4159 151.218 28.4159C148.395 28.4159 146.162 27.5623 144.586 25.855C143.01 24.1478 142.157 21.9809 142.222 19.6826V19.026C142.091 16.5965 142.945 14.1669 144.521 12.3283C146.096 10.5554 148.329 9.57047 150.693 9.70179C153.319 9.70179 155.289 10.4898 156.603 12.1313C157.916 13.7729 158.638 15.9398 158.638 18.5664V20.6019H147.147C147.278 21.6525 147.738 22.7032 148.526 23.4255C149.314 24.1478 150.43 24.5417 151.547 24.4761C153.254 24.5417 154.895 23.8194 155.88 22.4405L158.244 25.1327ZM150.627 13.5103C149.708 13.4446 148.854 13.8386 148.263 14.5609C147.672 15.3489 147.278 16.2681 147.147 17.2531H153.845V16.8591C153.845 16.0055 153.582 15.1519 153.057 14.4296C152.466 13.7729 151.547 13.4446 150.627 13.5103ZM172.099 28.0876L171.837 26.1833C171.311 26.84 170.655 27.4309 169.867 27.8249C169.079 28.2189 168.159 28.4159 167.24 28.4159C165.139 28.4816 163.169 27.4966 162.053 25.7893C160.739 23.8194 160.083 21.5212 160.214 19.223V18.8947C160.214 16.1368 160.805 13.9043 162.053 12.197C163.235 10.4898 165.205 9.57047 167.306 9.63613C169.013 9.57047 170.589 10.2928 171.64 11.606V2.41315H176.499V28.0876H172.099ZM165.008 19.223C164.942 20.4706 165.205 21.7839 165.796 22.9002C166.321 23.8851 167.371 24.5417 168.488 24.4104C169.801 24.4761 171.049 23.7538 171.64 22.5718V15.4145C171.114 14.2326 169.867 13.4446 168.488 13.5103C167.371 13.4446 166.321 14.0356 165.796 15.0862C165.205 16.2681 164.942 17.5814 165.008 18.8947V19.223ZM102.365 32.8153V57.1765H97.3742L87.5903 41.0889V57.1765H82.5342V32.8153H87.5903L97.3742 48.9029V32.8153H102.365ZM116.482 57.1765C116.22 56.6512 116.088 56.1259 116.023 55.5349C115.497 56.1259 114.906 56.5855 114.184 56.9138C113.33 57.3078 112.411 57.5048 111.426 57.5048C109.85 57.5705 108.274 56.9795 107.092 55.9945C105.91 55.0096 105.319 53.6307 105.319 52.1204C105.254 50.4132 106.042 48.7059 107.421 47.7209C108.8 46.6703 110.901 46.145 113.659 46.145H115.826V45.0944C115.891 44.3721 115.629 43.6498 115.169 43.0588C114.644 42.5335 113.921 42.2709 113.133 42.3365C111.426 42.3365 110.573 43.0588 110.573 44.5034H105.713C105.713 42.9275 106.501 41.4173 107.815 40.4323C109.456 39.2504 111.426 38.6594 113.396 38.7251C115.235 38.6594 117.073 39.1847 118.583 40.301C119.962 41.3516 120.619 42.9275 120.619 45.0944V52.7114C120.619 53.565 120.685 54.353 120.816 55.2066C120.947 55.7976 121.079 56.3229 121.341 56.8482V57.1765H116.482ZM112.477 53.8277C113.199 53.8277 113.921 53.6307 114.578 53.3023C115.103 53.0397 115.497 52.58 115.826 52.1204V48.9686H113.856C112.871 48.9029 111.82 49.1655 111.032 49.7565C110.441 50.2818 110.113 51.0041 110.113 51.7264C110.113 52.3174 110.31 52.8427 110.704 53.2367C111.229 53.6307 111.886 53.8277 112.477 53.8277ZM133.029 57.0452C132.57 57.1765 132.176 57.3078 131.716 57.3735C131.191 57.4391 130.666 57.5048 130.14 57.5048C128.761 57.5705 127.448 57.1108 126.332 56.2572C125.412 55.4692 124.953 54.0903 124.953 52.1204V42.5992H122.261V39.0534H124.953V34.5883H129.812V39.0534H132.898V42.5992H129.812V51.6608C129.746 52.1861 129.878 52.777 130.272 53.171C130.666 53.4337 131.191 53.565 131.651 53.565C131.913 53.565 132.176 53.565 132.438 53.4993C132.701 53.4993 132.898 53.4337 133.029 53.4337V57.0452ZM135.065 34.3913C135.065 33.7346 135.328 33.078 135.787 32.6183C136.904 31.6991 138.611 31.6991 139.727 32.6183C140.712 33.6033 140.712 35.1792 139.727 36.2298C138.611 37.1491 136.904 37.1491 135.787 36.2298C135.262 35.7045 134.999 35.0479 135.065 34.3913ZM140.187 39.0534V57.1765H135.328V39.0534H140.187ZM142.945 48.3119V47.9836C142.879 45.6197 143.667 43.2558 145.177 41.4173C146.687 39.6443 148.789 38.7907 151.481 38.7907C154.239 38.7907 156.34 39.6443 157.85 41.4173C159.361 43.2558 160.148 45.6197 160.083 47.9836V48.3119C160.148 50.6758 159.361 53.0397 157.85 54.8783C156.34 56.6512 154.239 57.5048 151.547 57.5048C148.789 57.5048 146.687 56.6512 145.177 54.8783C143.667 53.0397 142.879 50.6758 142.945 48.3119ZM147.804 47.9179V48.2463C147.738 49.5595 148.066 50.8728 148.657 51.9891C149.708 53.565 151.875 54.0246 153.451 52.974C153.845 52.7114 154.173 52.3831 154.436 51.9891C155.027 50.8071 155.289 49.5595 155.289 48.2463V47.9179C155.355 46.6047 155.027 45.3571 154.436 44.1751C153.845 43.1245 152.729 42.4679 151.547 42.5992C150.365 42.5335 149.248 43.1245 148.657 44.1751C148.066 45.3571 147.738 46.6703 147.804 47.9179ZM170.458 42.6649C169.21 42.5992 167.962 43.2558 167.371 44.4378V57.1765H162.512V39.0534H167.043L167.24 41.1546C168.488 39.5787 170.392 38.6594 172.428 38.7251C174.003 38.6594 175.514 39.1847 176.63 40.2353C177.681 41.2859 178.206 43.0588 178.206 45.6197V57.1765H173.347V45.6197C173.347 44.4378 173.084 43.6498 172.625 43.2558C171.968 42.7962 171.18 42.5992 170.458 42.6649ZM191.207 52.1204C191.207 51.5951 190.945 51.0698 190.485 50.8071C189.566 50.2818 188.515 49.9535 187.53 49.8222C185.889 49.4939 184.313 48.9029 182.934 47.9836C181.752 47.1956 181.029 45.8167 181.095 44.3721C181.095 42.8619 181.817 41.4173 182.999 40.4323C184.313 39.316 186.02 38.7251 188.318 38.7251C190.616 38.7251 192.521 39.2504 193.899 40.3666C195.213 41.3516 195.935 42.9275 195.935 44.5691H191.076C191.076 43.9125 190.879 43.3215 190.419 42.8619C189.828 42.4022 189.106 42.1396 188.318 42.2052C187.661 42.1396 187.005 42.3365 186.414 42.7305C186.02 43.0588 185.757 43.5841 185.757 44.1095C185.757 44.6348 186.02 45.1601 186.48 45.4227C187.267 45.8824 188.187 46.145 189.106 46.2764C190.813 46.6047 192.455 47.1956 193.965 48.0493C195.278 48.8372 195.935 50.1505 195.935 51.9234C195.935 53.4993 195.147 54.9439 193.899 55.8632C192.521 56.9138 190.682 57.4391 188.318 57.4391C185.823 57.4391 183.853 56.7825 182.54 55.4692C181.292 54.4186 180.57 52.9084 180.504 51.3324H185.101C185.101 52.1204 185.495 52.9084 186.151 53.368C186.808 53.762 187.596 54.0246 188.449 53.959C190.222 54.0903 191.207 53.4337 191.207 52.1204Z" fill="#C7C7C7"/>
<path d="M56.7285 54.6156C54.8243 55.5349 52.723 55.7975 50.6218 55.3379C49.1772 55.0096 47.8639 54.5499 46.5507 53.959L43.6615 52.777C41.1663 51.9891 38.4741 51.9234 35.9132 52.58H35.6505C33.0896 51.8577 30.3974 51.9234 27.9022 52.777C26.9173 53.1053 25.998 53.565 25.013 53.959C23.6998 54.5499 22.3208 55.0752 20.9419 55.4036C18.9063 55.8632 16.7394 55.6005 14.8352 54.6813L14.5725 54.5499C14.5069 54.5499 14.5069 54.5499 14.5069 54.6156C15.7545 55.9289 17.3961 56.8481 19.1033 57.3078C20.2853 57.6361 21.5329 57.7018 22.7148 57.5704C24.5534 57.3078 26.3263 56.6512 27.8366 55.6005L30.5944 53.762C31.6451 53.1053 32.8927 52.8427 34.0746 53.1053C34.7312 53.171 34.2059 53.4993 34.1403 53.565C32.4987 54.3529 30.9228 55.3379 29.4782 56.4542C28.4932 57.1765 26.7203 58.8837 26.7203 58.8837L28.0336 60L29.4782 58.4241C31.2511 56.5855 33.2866 55.0096 35.5192 53.762C35.7162 53.6306 35.9132 53.6306 36.1102 53.762C38.3427 55.0096 40.3783 56.5855 42.1512 58.4241L43.5958 60L44.9091 58.8837L42.1512 56.4542C40.7066 55.3379 39.1307 54.3529 37.4891 53.565C37.3578 53.4993 36.8981 53.171 37.5548 53.1053C38.7367 52.8427 39.9843 53.1053 41.0349 53.762L43.7928 55.6005C45.3031 56.6512 47.076 57.3078 48.9145 57.5704C50.0965 57.7018 51.3441 57.6361 52.526 57.3078C54.2333 56.7825 55.8749 55.8632 57.1225 54.6156C57.1225 54.6156 57.0568 54.5499 56.9912 54.5499L56.7285 54.6156ZM63.1635 48.9029C62.3099 49.5595 61.3906 50.0191 60.4057 50.3475C59.0267 50.7414 57.5165 51.0041 56.0719 51.0041C54.1676 51.0698 52.329 51.2011 50.4248 51.4637C50.2935 51.4637 50.2278 51.4637 50.2935 51.3981C51.9351 50.7414 53.2483 49.4282 53.9706 47.8523L55.8092 44.1094C55.8092 44.0438 55.8092 44.0438 55.8092 43.9781C55.6779 44.0438 53.8393 45.6197 52.9857 46.4077L49.8995 49.4282C48.5206 50.6101 46.879 51.4637 45.1061 51.9234H45.0404L44.9747 51.9891L48.5206 52.8427C50.0308 53.3023 51.6067 53.565 53.1827 53.6963C57.1881 54.0903 61.0623 52.2517 63.2948 48.9685C63.2948 48.9029 63.2292 48.9029 63.1635 48.9029ZM68.9419 40.104C68.0226 41.2202 66.9063 42.2052 65.6587 42.9932C64.6081 43.7155 63.4918 44.3064 62.3099 44.8317C60.7996 45.4227 59.4207 46.2763 58.1731 47.2613L57.9104 47.4583C57.8448 47.4583 57.8448 47.4583 57.8448 47.3926C57.8448 47.3269 59.8147 45.357 60.4057 41.2202C60.4713 39.71 60.734 38.2654 61.0623 36.8208C61.0623 36.7551 61.0623 36.7551 61.0623 36.6895C59.6834 38.3967 58.6327 40.301 57.9104 42.3365L56.7285 45.6854C56.2689 47.1956 55.4152 48.5746 54.2989 49.6908L54.1676 49.8222V49.8878C54.299 49.8878 54.4303 49.8222 54.5616 49.8222L58.3701 49.0342C60.4713 48.7059 62.4412 47.8523 64.1485 46.6046C65.9214 45.357 67.3003 43.6498 68.2853 41.7456C68.5479 41.2202 68.7449 40.6949 68.9419 40.1696C69.0732 40.0383 69.0076 40.0383 68.9419 40.104ZM71.4371 30.2544C70.8461 32.0274 69.7955 33.6689 68.4166 34.9822C66.8407 36.4925 65.3961 38.1997 64.0828 39.907C64.0828 39.9726 63.9515 39.907 64.0171 39.8413C64.5424 38.0684 64.6738 36.1642 64.4111 34.2599C64.1485 32.684 63.4918 30.9767 63.2948 29.0725L63.2292 29.0068C63.2292 29.0725 63.1635 29.1382 63.1635 29.2038C62.7695 30.4514 62.5069 31.699 62.3756 33.0123C62.3099 34.5882 62.5725 36.6238 62.4412 38.1997C62.3099 40.0383 62.1786 41.9425 61.3249 43.5841C61.3249 43.6498 61.3249 43.6498 61.3249 43.7155L65.2647 41.2859C66.9063 40.2353 68.2853 38.922 69.4015 37.3461C70.8461 35.3105 71.5684 32.9466 71.5684 30.4514C71.5684 30.3858 71.5684 30.2544 71.5684 30.1888C71.5028 30.1888 71.4371 30.2544 71.4371 30.2544Z" fill="#C7C7C7"/>
<path d="M67.2346 31.305C67.3003 31.305 67.3003 31.305 67.2346 31.305C67.2346 30.7797 67.2346 30.2544 67.169 29.7291C67.0377 27.8905 65.9214 26.3803 64.9364 24.8043C64.2798 23.8194 63.6888 22.7688 63.1635 21.6525C63.1635 21.6525 63.0978 21.5868 63.0322 21.5868C63.0322 21.7182 63.0322 22.3091 63.0978 22.6375C63.4262 25.264 64.0828 27.8905 65.0677 30.3857C65.6587 31.9617 65.8557 33.6033 65.7244 35.2448C65.7244 35.3762 65.7244 35.3762 65.79 35.4418C66.381 34.5882 67.563 33.4063 68.2853 32.487C69.0076 31.5677 72.9474 27.1026 71.0431 20.9302C70.9775 20.6675 70.8461 20.4049 70.7148 20.1422L70.6491 20.2079C70.6491 24.673 68.4823 26.5773 67.6286 29.5978C67.4316 30.3201 67.3003 30.8454 67.2346 31.305ZM67.3003 22.1121L66.9063 21.0615L66.6437 20.4706C65.987 19.2886 65.0678 18.238 63.9515 17.45C63.0322 16.6621 62.2442 15.8085 61.5876 14.8235C61.5876 14.8235 61.5219 14.8235 61.4563 14.8235H61.3906C61.4563 15.0205 62.0472 16.9904 62.4412 17.9097C63.0978 19.1573 63.8858 20.4049 64.8051 21.4555L65.0021 21.7182C66.1184 23.2284 66.972 24.87 67.563 26.6429C67.563 26.7086 67.6286 26.7086 67.6286 26.7086L68.7449 23.2941C69.1389 22.1121 69.4672 20.8645 69.7299 19.6169C70.1238 16.6621 69.2046 12.9193 67.4973 10.818C67.4973 10.818 67.4316 10.8837 67.4316 10.9494L67.4973 11.212L67.6286 11.606C67.9569 13.1819 68.0226 14.8892 67.6943 16.4651C67.4316 17.7127 67.366 19.026 67.366 20.3392C67.366 20.5362 67.4973 22.1778 67.4973 22.2435C67.4973 22.3091 67.4316 22.2435 67.366 22.2435M62.0472 5.63062C62.5725 6.15592 63.0322 6.74689 63.2948 7.46919C63.7545 8.58547 63.8858 10.2271 64.2141 11.4747L64.8051 13.6416C64.8051 13.7072 64.7394 13.7729 64.6738 13.7072C63.6888 12.5253 62.5069 11.5403 61.1279 10.7524C60.2087 10.2271 59.4864 9.50476 58.8297 8.7168L58.5014 8.25715C58.5014 8.25715 58.4357 8.19149 58.3701 8.25715C58.3701 8.32282 58.3701 8.38848 58.3701 8.45414C58.6984 9.89874 59.355 11.2777 60.4056 12.394C61.2593 13.1819 62.1786 13.9042 63.0322 14.6265C64.1485 15.5458 65.1991 16.6621 66.184 17.7784C66.184 17.7784 66.2497 17.844 66.2497 17.7784V16.7277L66.3154 13.5759V12.5253C66.3154 11.4747 66.1184 10.3584 65.7244 9.37343C65.0677 7.73185 63.8201 6.41858 62.3099 5.63062C62.2442 5.56495 62.1129 5.56495 61.9816 5.49929C61.9816 5.49929 61.9816 5.56495 62.0472 5.63062ZM55.2839 2.54443C56.2032 3.39806 56.9911 4.38301 57.7134 5.43363C58.3701 6.48424 59.0924 7.40353 60.0117 8.25715C60.6026 8.84813 62.3755 10.2271 62.8352 10.621C62.7695 10.0957 61.9159 6.35291 59.6177 4.51434C58.3044 3.46372 56.7285 2.67576 55.0869 2.28178C55.0869 2.34744 55.0869 2.34744 55.0869 2.41311L55.2839 2.54443ZM18.5124 53.6963C20.0226 53.5649 21.5985 53.3023 23.0431 52.8427L26.589 51.989H26.6546C26.6546 51.989 26.6546 51.9234 26.589 51.9234H26.5233C24.7504 51.4637 23.1088 50.6101 21.6642 49.4282L18.578 46.4733L15.7545 44.0437V44.1751C16.0171 44.569 17.0021 46.736 17.5931 47.9179C18.3154 49.5595 19.6286 50.8071 21.2702 51.4637C21.3359 51.5294 21.2702 51.5294 21.1389 51.5294C19.3003 51.2667 17.3961 51.1354 15.4918 51.0697C14.0472 51.0697 12.537 50.8071 11.158 50.4131C10.1731 50.0848 9.25381 49.6251 8.40018 48.9685C8.33452 48.9685 8.33452 48.9685 8.26886 48.9685C9.58213 50.8071 11.4207 52.2517 13.5219 53.0396C15.1635 53.5649 16.8051 53.7619 18.5124 53.6963ZM17.0021 49.8221C17.1334 49.8221 17.1991 49.8878 17.3961 49.8878V49.8221L17.2648 49.6908C16.1485 48.5745 15.3605 47.1956 14.8352 45.6853L13.6533 42.3365C12.931 40.3009 11.8803 38.3967 10.5014 36.6894C10.5014 36.7551 10.5014 36.7551 10.5014 36.8208C10.8954 38.2654 11.0924 39.71 11.2237 41.2202C11.8147 45.2914 13.7846 47.2613 13.7846 47.3269C13.7846 47.3926 13.7846 47.4582 13.7189 47.3926L13.4563 47.1956C12.2087 46.2106 10.8297 45.357 9.31947 44.766C8.13753 44.2407 7.02125 43.6498 5.97064 42.9275C4.72303 42.1395 3.60675 41.1546 2.68746 40.0383H2.6218C2.81879 40.5636 3.01578 41.0889 3.27843 41.6142C4.26339 43.5184 5.70798 45.2257 7.4809 46.4733C9.18815 47.7866 11.158 48.6402 13.2593 48.9028C14.5069 49.2312 15.7545 49.5595 17.0021 49.8221ZM6.43028 41.2859L10.3701 43.7154C10.3701 43.7154 10.4358 43.6498 10.4358 43.5841C9.58213 41.8769 9.4508 40.0383 9.31947 38.1997C9.18815 36.5581 9.4508 34.5882 9.38514 33.0123C9.25381 31.699 8.99116 30.3857 8.59718 29.1381C8.59718 29.0725 8.53151 29.0068 8.53151 28.9411L8.46585 29.0068C8.33452 30.911 7.61222 32.6183 7.34957 34.1942C7.08692 36.0328 7.21824 37.937 7.74355 39.7756C7.80921 39.8413 7.67789 39.9069 7.67789 39.8413C6.36462 38.0684 4.92002 36.4268 3.3441 34.9165C1.96517 33.6033 0.91455 32.0273 0.323578 30.2544C0.323578 30.2544 0.257915 30.1888 0.192252 30.1888C0.126588 30.1888 0.192252 30.3201 0.192252 30.4514C0.192252 32.881 0.91455 35.3105 2.35915 37.3461C3.40976 38.8563 4.78869 40.2353 6.43028 41.2859ZM5.70798 35.5075C5.77365 35.4418 5.77365 35.4418 5.77365 35.3105C5.64232 33.6689 5.83931 31.9617 6.49594 30.4514C7.41523 27.9562 8.07187 25.3953 8.46585 22.7031C8.46585 22.3748 8.53151 21.7838 8.53151 21.6525C8.46585 21.6525 8.46585 21.6525 8.46585 21.7182C7.94054 22.8344 7.34957 23.8851 6.69293 24.87C5.64232 26.3146 4.5917 27.8905 4.46038 29.7291C4.39471 30.2544 4.39471 30.7797 4.46038 31.305C4.46038 31.305 4.46038 31.3707 4.39471 31.3707C4.39471 31.3707 4.39471 31.3707 4.39471 31.305L3.93507 29.7291C3.01578 26.7086 0.91455 24.8043 0.91455 20.3392L0.848886 20.2736C0.717559 20.5362 0.651896 20.7989 0.520569 21.0615C-1.38367 27.2339 2.49047 31.699 3.27843 32.6183C4.0664 33.5376 5.11701 34.6539 5.70798 35.5075ZM2.95012 23.2284L4.0664 26.6429C4.0664 26.6429 4.13206 26.6429 4.13206 26.5773C4.72303 24.8043 5.64232 23.1628 6.69293 21.6525L6.88993 21.3898C7.80921 20.2736 8.59718 19.0916 9.25381 17.844C9.64779 16.9247 10.2388 14.9548 10.3044 14.7578H10.2388C10.1731 14.7578 10.1731 14.7578 10.1074 14.7578C9.4508 15.7428 8.66284 16.5964 7.74355 17.3844C6.62727 18.1723 5.64232 19.223 4.98568 20.4706C4.92002 20.6675 4.78869 20.8645 4.72303 21.0615L4.32905 22.1778C4.32905 22.1778 4.26339 22.3091 4.26339 22.1778C4.26339 22.0465 4.39471 20.5362 4.39471 20.2736C4.39471 18.9603 4.26339 17.647 4.00073 16.3994C3.67242 14.7578 3.73808 13.1163 4.0664 11.5403C4.0664 11.409 4.13206 11.2777 4.19772 11.1463C4.19772 11.0807 4.26339 10.9494 4.26339 10.8837C4.26339 10.818 4.26339 10.818 4.19772 10.7524C2.49047 12.8536 1.50552 16.6621 1.8995 19.5513C2.22782 20.7989 2.55614 22.0465 2.95012 23.2284ZM5.314 13.6416L5.37967 16.7934V17.7784H5.44533C6.36462 16.5964 7.41523 15.5458 8.53151 14.5608L11.158 12.3283C12.2087 11.212 12.8653 9.83308 13.1936 8.38848C13.1936 8.32282 13.1936 8.25715 13.1936 8.19149H13.128L12.7996 8.65114C12.2087 9.4391 11.4207 10.1614 10.5671 10.6867C8.99116 11.6717 7.94054 12.394 7.02125 13.6416C6.95559 13.7072 6.88993 13.7072 6.95559 13.5759L7.54656 11.409C7.87488 10.1614 8.0062 8.51981 8.46585 7.40353C8.7285 6.74689 9.18815 6.09026 9.71345 5.56495C9.71345 5.49929 9.71345 5.49929 9.71345 5.43363C9.58213 5.43363 9.51646 5.49929 9.38514 5.56495C7.74355 6.41858 6.56161 7.79751 5.90497 9.37343C5.51099 10.3584 5.24834 11.409 5.314 12.5253V13.6416ZM8.79417 10.5554L11.6834 8.19149C12.537 7.33787 13.3249 6.41858 13.9816 5.36796C14.6382 4.31735 15.4918 3.33239 16.4111 2.47877L16.6081 2.28178C16.6081 2.21612 16.6081 2.21612 16.6081 2.15045C14.9665 2.54443 13.3906 3.26673 12.0773 4.38301C9.64779 6.28725 8.85983 10.0301 8.79417 10.5554ZM35.1909 30.9111C35.3879 30.6484 34.9282 30.4514 34.7969 30.9111C34.6656 31.3707 34.9939 31.2394 35.1909 30.9111ZM40.1813 19.3543C39.9843 19.2886 39.262 20.1422 39.3933 20.2736C39.7217 20.0766 39.9843 19.7483 40.1813 19.3543ZM40.3126 19.223C40.444 19.2886 40.9036 19.026 40.8379 18.9603C40.7723 18.8946 40.1813 18.632 40.1813 18.7633C40.1813 19.026 40.247 19.1573 40.3126 19.223ZM49.1772 27.3652C49.4398 27.2996 49.3742 26.9056 49.1772 26.9056C48.9802 26.9056 48.7176 27.2339 48.7832 27.2339C48.8489 27.2339 49.0459 27.4309 49.1772 27.3652ZM45.9597 18.632C45.7627 18.632 45.697 18.829 45.894 18.9603C46.091 19.026 46.2223 18.9603 46.3537 18.8946C46.485 18.829 46.6163 18.6976 46.6163 18.5007C46.6163 18.3037 46.3537 18.041 46.485 17.9097C46.6163 17.7784 46.8133 17.9753 46.9446 17.9097C47.076 17.844 47.1416 17.7127 47.1416 17.5814C47.1416 17.45 47.076 17.0561 46.8133 17.0561C46.5507 17.0561 46.288 17.5814 46.288 17.5814C46.2223 17.7127 46.2223 17.9097 46.288 18.041C46.3537 18.3037 46.288 18.632 45.9597 18.632Z" fill="#C7C7C7"/>
<path d="M50.2935 18.6977C50.2935 18.829 50.6218 19.6826 50.6875 19.8796C50.7531 20.0766 50.8188 20.7989 50.9501 20.7332C51.0814 20.6676 51.0814 20.2736 51.0158 20.0766C50.9501 19.617 50.8188 19.0916 50.6875 18.6977C50.6218 18.435 50.1622 17.4501 50.0308 17.5157C49.8995 17.5814 50.2278 18.1724 50.2935 18.435C50.3591 18.6977 50.2278 18.5663 50.2935 18.6977ZM47.9953 7.53488C48.1922 7.60054 48.1922 7.20656 47.8639 6.94391C47.5356 6.68125 47.0103 6.81258 47.1416 6.94391C47.4043 7.1409 47.6669 7.40355 47.9953 7.53488ZM38.1457 4.71135C37.6861 4.44869 38.0801 4.05471 37.7518 3.79206C37.3578 3.66073 36.9638 3.7264 36.7011 3.98905C36.3728 4.38303 37.0951 4.2517 37.2921 4.38303C37.4891 4.51436 38.1457 4.974 38.2114 4.90834C38.2771 4.84268 38.2114 4.71135 38.1457 4.71135ZM40.7723 3.39808C40.1813 3.13543 38.0144 3.13543 38.0801 3.7264C38.1457 4.31737 39.3277 3.7264 39.656 3.7264C39.9843 3.7264 41.2976 3.66073 40.7723 3.39808ZM34.7969 28.7442C34.6656 28.6785 34.4686 28.8098 34.4029 28.6785C34.3373 28.5472 34.2059 28.6129 34.2059 28.6785C34.2059 28.7442 34.1403 28.8755 34.2716 29.0068C34.4029 29.1382 34.6656 29.1382 34.7969 29.0068C34.8626 28.9412 34.8626 28.8098 34.7969 28.7442ZM33.5493 24.3447C33.7463 24.3447 33.7463 24.2134 33.8119 24.2134C33.8776 24.2134 33.8119 24.3447 34.0089 24.3447C34.2059 24.3447 34.4029 23.8851 33.8119 23.8851C33.3523 23.8851 33.418 24.3447 33.5493 24.3447ZM34.3373 24.87C34.0089 24.8044 34.0746 25.0014 33.8119 25.0014C33.418 25.067 33.7463 24.7387 33.615 24.6074C33.5493 24.5417 33.3523 24.87 33.2866 25.067C33.2866 25.1984 33.2866 25.461 33.418 25.5267L34.6656 25.658C34.9282 25.658 34.6656 24.9357 34.3373 24.87ZM30.2661 29.1382C30.3974 29.1382 30.4631 28.7442 30.3974 28.5472C30.3318 28.3502 29.9378 28.4815 29.9378 28.6129C29.9378 28.7442 30.2005 29.1382 30.2661 29.1382ZM25.013 29.1382C25.013 29.0068 25.013 28.4815 24.8817 28.3502C24.7504 28.2189 24.7504 28.4159 24.6847 28.4159C24.6191 28.4159 24.6191 28.1532 24.5534 28.1532C24.4877 28.1532 24.5534 28.5472 24.6847 28.8098C24.8161 29.0725 25.013 29.4665 25.013 29.1382ZM24.8817 27.9562C25.013 27.5622 25.0787 27.1683 25.0787 26.7743C25.0787 26.446 24.8817 26.1833 24.8161 26.1833C24.7504 26.1833 24.8161 26.3803 24.8817 26.7086C24.8817 27.0369 24.7504 27.3652 24.6847 27.6936C24.6847 27.7592 24.8161 28.0875 24.8817 27.9562Z" fill="#C7C7C7"/>
<path d="M18.184 42.6648C27.9679 52.4487 43.7271 52.4487 53.511 42.6648C63.2949 32.881 63.2949 17.1217 53.511 7.33789C43.7271 -2.44596 27.9679 -2.44596 18.184 7.33789C8.40019 17.1217 8.40019 32.9466 18.184 42.6648ZM11.946 25.5267H15.7545C15.8202 27.4966 16.1485 29.4008 16.7394 31.2394C16.5425 31.1737 16.3455 31.1081 16.1485 30.9767C15.8858 30.8454 15.6888 31.0424 15.6232 31.0424C15.3605 31.0424 15.0322 30.8454 15.0322 31.0424C15.0322 31.2394 15.2949 31.1081 15.2949 31.2394C15.2949 31.3707 14.6382 31.3707 14.5726 31.1081C14.5069 30.8454 14.3756 30.5828 14.3099 30.9111C14.2442 31.2394 13.9816 31.1737 13.8503 31.2394C13.7846 31.3051 13.7189 31.4364 13.7189 31.5677C13.7189 31.699 13.3906 31.6334 13.3906 31.8304C13.3906 32.0274 13.5876 32.093 13.6533 32.29C13.7189 32.487 13.9159 32.6183 13.7846 32.684C13.6533 32.7497 13.7189 32.6183 13.5876 32.684C13.4563 32.7497 14.1786 34.7196 14.3099 34.6539C14.4412 34.5882 14.1129 33.9973 14.1129 33.7346C14.1129 33.472 14.1786 33.4063 14.3756 33.275C14.5726 33.1436 15.0979 34.0629 15.2949 33.9316C15.4918 33.8003 15.2292 33.6689 15.4262 33.6033C15.6232 33.5376 16.2141 34.4569 16.4111 34.1943C16.5425 33.9973 16.6738 34.3256 16.6738 34.3912C16.8708 34.7196 17.1991 34.7196 17.3961 35.1135C17.5931 35.5075 18.0527 36.2298 18.381 36.2298C18.7094 36.2298 18.5124 35.9015 18.6437 35.9015C18.775 35.9015 18.9063 36.3611 19.1033 36.6238C19.2347 36.8208 19.4317 36.9521 19.6943 37.0178C20.1539 37.6088 20.6793 38.1997 21.2046 38.7907L18.5124 41.4829C14.3756 37.2804 12.0117 31.5677 11.946 25.5267ZM33.6806 20.0766L33.418 20.2079C33.024 20.4049 32.6957 20.6019 32.433 20.8646L29.7408 18.1724C31.3167 16.7934 33.2866 15.9398 35.3222 15.8741V19.6826C34.8626 19.7483 34.4029 19.814 33.9433 20.0109C34.0746 19.7483 34.3373 19.4856 34.3373 19.4856C34.3373 19.4856 33.8776 19.7483 33.6806 20.0766ZM31.6451 26.3146C31.6451 26.3803 31.6451 26.446 31.6451 26.446C31.6451 26.3146 31.5794 26.249 31.5137 26.1176C31.4481 26.052 31.3824 25.9863 31.3167 25.9863C31.2511 25.9863 31.1854 25.9863 31.1198 25.9863H30.9884L30.8571 26.052H29.9378C29.8065 26.052 29.7408 26.052 29.7408 25.9863C29.6752 25.7237 30.0691 25.9207 30.3318 25.1327C30.3975 25.067 30.3975 24.9357 30.4631 24.87L30.5288 24.7387L30.5944 24.6731L30.6601 24.6074C30.7914 24.4761 30.9228 24.4761 31.0541 24.4761H31.1854L31.3167 24.6074L31.5137 25.0014C31.5794 25.067 31.6451 25.067 31.6451 25.1327C31.7764 25.1984 31.842 25.264 31.9077 25.3297L31.9734 25.3953V25.461C32.039 25.5267 32.039 25.5267 32.1047 25.5267H32.1704C32.236 25.5267 32.236 25.5267 32.3017 25.5267H32.3674C32.4987 25.461 32.4987 25.5267 32.5643 25.5267V25.5923C32.5643 25.658 32.5643 25.658 32.4987 25.7237C32.4987 25.7893 32.433 25.7893 32.433 25.855C32.3674 25.9207 32.3017 25.9863 32.236 25.9863C32.1047 25.9863 31.9734 25.9207 31.9077 25.9207C31.842 25.9207 31.7764 25.9207 31.7764 25.9863V26.3146M24.5534 32.6183C24.3564 32.29 24.2907 31.8304 24.2907 31.4364C24.2907 31.0424 24.1594 30.6484 23.9624 30.3201C23.8968 30.0575 23.8311 29.7948 23.8311 29.5321C23.8311 29.0725 23.4371 29.2038 23.4371 29.0725C23.4371 28.9412 23.7654 29.0725 23.7654 28.9412C23.7654 28.8099 23.3715 28.2845 23.0431 28.1532C22.7148 28.0219 22.8462 27.8249 22.8462 27.6279C22.8462 27.4309 22.8462 27.2339 22.7148 27.1026C22.6492 26.8399 22.7148 26.3803 23.0431 26.3803C23.1745 26.3803 23.3715 26.5116 23.5685 26.3803C23.7654 26.249 23.6341 25.855 23.6341 25.5267H25.4727C25.4727 25.7893 25.5384 26.1176 25.5384 26.3803C25.407 26.446 25.3414 26.5773 25.407 26.643C25.4727 26.7086 25.5384 26.7743 25.604 26.7086C25.9323 28.6129 26.786 30.3858 28.0992 31.8304L25.407 34.5226C25.21 34.3256 25.013 34.0629 24.8161 33.8003C24.8161 33.7346 24.8161 33.6689 24.8161 33.6033C24.8161 33.1436 24.4877 32.881 24.3564 32.487M21.9925 28.0219C21.7955 27.2339 21.7299 26.3803 21.6642 25.5267H23.2401C23.1088 25.7237 22.7805 25.9207 22.7148 26.1176C22.6492 26.3146 22.2552 26.9713 22.5178 27.2339C23.1088 27.8906 22.3865 28.1532 21.9925 28.0219ZM22.3208 37.7401L21.9925 38.0684C21.8612 37.9371 21.6642 37.7401 21.5329 37.6088C21.7955 37.4774 22.0582 37.5431 22.3208 37.7401ZM26.392 20.8646C26.3263 20.8646 26.3263 20.9302 26.2607 20.9302C26.0637 21.1272 25.5384 21.0616 25.604 21.2586C25.6697 21.4555 27.0486 20.7989 27.0486 20.9302C27.0486 21.0616 26.4576 21.2585 26.0637 21.4555C25.6697 21.6525 25.5384 21.9809 24.8817 21.9809C24.5534 21.9809 24.4221 22.2435 24.2907 22.4405C24.0938 22.7031 23.9624 22.9658 23.8311 23.2285C23.8311 23.6224 23.7654 24.0164 23.5685 24.4104H21.6642C21.7955 21.0616 23.1088 17.844 25.407 15.3488L28.0992 18.041C27.4426 18.9603 26.8516 19.8796 26.392 20.8646ZM28.8872 18.8947L31.2511 21.2586C31.1854 21.2586 31.1198 21.2586 30.9884 21.2586C30.7258 21.2586 30.7258 21.0616 30.5288 21.0616C30.1348 21.1272 30.0691 21.2586 30.0035 21.1929C29.7408 20.9302 29.4125 20.7332 29.0185 20.5363C28.5589 20.4049 28.0992 20.4049 27.7052 20.6019C27.6396 20.6019 27.6396 20.6676 27.5739 20.6676C28.0336 20.0766 28.4932 19.4856 28.8872 18.8947ZM25.604 23.6881C25.604 23.9508 25.5384 24.2134 25.5384 24.4761H24.1594C24.0938 24.2791 24.1594 24.0821 24.2907 23.8851C24.4221 23.6224 24.7504 23.4911 25.0787 23.5568C25.21 23.5568 25.407 23.6224 25.604 23.6881ZM26.786 26.7743L26.9173 26.9713C27.0486 27.1026 27.1799 27.2339 27.3113 27.1683C27.4426 27.1026 27.7709 27.1683 27.8366 27.1683C28.0336 27.2339 28.1649 27.3653 28.2962 27.4966C28.4275 27.6936 28.6902 27.5622 28.8872 27.6936C29.0842 27.8249 29.2812 27.9562 29.0185 28.0876C28.7559 28.2189 29.2812 28.4815 29.3468 28.4815C29.4125 28.4815 29.4782 28.3502 29.4782 28.1532C29.4782 28.0876 29.6095 27.8249 29.8065 27.8906C30.0035 27.9562 30.5944 28.6785 30.7914 28.4159C30.9884 28.1532 30.8571 27.8249 30.9228 27.6936C30.9228 27.6279 30.9884 27.5622 31.0541 27.5622C31.2511 27.8906 31.3824 28.1532 31.6451 28.4159L28.9529 31.1081C27.8366 29.9261 27.0486 28.4159 26.786 26.7743ZM28.8872 17.3844L26.2607 14.6922C28.7559 12.394 31.9734 11.0807 35.3222 10.9494V14.7579C32.9583 14.8235 30.7258 15.7428 28.8872 17.3844ZM25.4727 13.9042L22.7805 11.212C26.195 7.99453 30.6601 6.15595 35.3222 6.02462V9.8331C31.6451 9.96443 28.0992 11.409 25.4727 13.9042ZM24.6847 14.6265C22.1895 17.3187 20.7449 20.7989 20.6136 24.4761H16.8051C16.9364 19.814 18.775 15.3488 21.9925 11.9343L24.6847 14.6265ZM20.6136 25.5267C20.6136 26.249 20.6793 26.9056 20.8106 27.6279C20.7449 27.6279 20.7449 27.4309 20.5479 27.4966C20.3509 27.5622 19.6286 28.8098 19.3003 29.3352C19.0377 29.7948 19.4317 30.7798 19.0377 31.1081C18.6437 31.2394 18.2497 31.3051 17.8557 31.3051H17.7901C17.1334 29.4665 16.8051 27.5622 16.7394 25.658L20.6136 25.5267ZM35.2565 48.9029C29.2812 48.7715 23.5684 46.4077 19.3003 42.2709L21.9925 39.5787C25.604 42.9932 30.3318 44.9631 35.2565 45.0944V48.9029ZM35.2565 44.0438C30.5944 43.9124 26.1293 42.0739 22.7148 38.8564L23.1745 38.3967C23.2401 38.4624 23.3715 38.528 23.5028 38.5937C23.7654 38.725 24.0938 38.7907 24.4221 38.725C24.6847 38.6594 25.21 38.1997 25.5384 38.1997C25.8667 38.1997 26.392 38.3311 26.7203 38.1341C27.0486 37.9371 26.5233 37.2804 26.3263 36.9521C26.2607 36.8865 26.2607 36.8208 26.195 36.7551C28.7559 38.922 32.039 40.1696 35.3879 40.2353L35.2565 44.0438ZM35.2565 39.119C31.9077 38.9877 28.6902 37.6744 26.195 35.3762L28.8872 32.684C30.1348 33.8003 31.6451 34.6539 33.3523 35.0479C32.7613 35.3105 32.4987 35.7045 32.5643 36.0328C32.63 36.3611 32.1704 36.5581 32.1704 36.9521C32.1704 37.3461 32.6957 37.6088 32.7613 38.0027C32.827 38.1997 33.2866 38.528 33.6806 38.7907C34.2059 38.922 34.7312 38.9877 35.1909 38.922L35.2565 39.119ZM35.1252 33.8659C34.9282 33.7346 34.7969 33.9973 34.5343 34.1286C32.6957 33.8659 31.0541 33.078 29.6752 31.896L32.3674 29.2038C33.221 29.8605 34.2059 30.3201 35.2565 30.3858C35.2565 30.5171 35.3879 30.6484 35.3879 30.9111C35.3879 31.1737 35.1909 31.3051 35.2565 31.4364C35.3222 31.5677 35.9132 31.4364 35.9788 31.2394C36.0445 31.0424 35.7819 30.9111 35.7162 30.7141C35.6505 30.5828 35.6505 30.5171 35.5849 30.3858H35.7819C35.9788 30.3858 36.1758 30.3858 36.3728 30.3201C36.4385 30.3201 36.5042 30.2544 36.5042 30.1888C36.5042 30.1231 36.5698 30.0575 36.5698 29.9918C36.5698 29.9261 36.6355 29.9261 36.6355 29.8605L36.7011 29.9261C36.7668 30.0575 36.8981 30.4514 37.0295 30.3858C37.1608 30.3201 37.2265 29.7291 37.1608 29.5978C37.0295 29.4008 37.0295 29.2038 37.1608 29.0068C37.1608 28.9412 37.2265 28.5472 37.3578 28.6129C37.4891 28.6785 37.3578 29.0068 37.3578 29.1382C37.3578 29.3352 37.4891 29.5978 37.6861 29.4665C37.8174 29.4008 37.9488 29.2038 38.0801 29.2695C38.2114 29.3352 37.7518 29.4665 37.6861 29.5978C37.6204 29.7291 37.8831 29.7948 37.8174 29.8605C37.7518 29.9261 37.6861 29.8605 37.6204 29.9261C37.5548 29.9918 37.7518 30.3858 37.6204 30.4514C37.4891 30.5171 37.0295 30.6484 36.8981 30.7141C36.7668 30.7798 36.6355 30.6484 36.7011 30.5828C36.7668 30.5171 36.7011 30.2544 36.5698 30.2544C36.4385 30.2544 36.4385 30.3201 36.4385 30.4514C36.4385 30.5828 36.5698 30.7798 36.5698 30.8454C36.5698 30.9111 36.3728 30.9767 36.2415 31.0424C36.1102 31.2394 35.9132 31.4364 35.7162 31.5677C35.5192 31.699 35.1252 31.699 35.1252 31.8304C35.1252 31.9617 35.3222 31.9617 35.3879 32.0274C35.5192 32.2243 35.5849 32.487 35.3222 32.6183C35.0596 32.7497 34.7312 32.4213 34.5999 32.487C34.4686 32.5527 34.4029 32.881 34.3373 33.275C34.2716 33.6689 35.0596 33.8003 35.4535 33.6033C35.7162 33.472 35.6505 33.078 35.9132 32.9466C36.1758 32.8153 36.1102 32.5527 36.3728 32.6183C36.6355 32.684 36.5698 32.4213 36.8325 32.4213C37.0951 32.4213 37.0951 32.6183 37.4234 32.684C37.9488 32.8153 37.9488 33.2093 38.0144 33.0123C38.0801 32.8153 38.1457 32.684 37.7518 32.5527C37.3578 32.4213 37.1608 31.9617 37.4891 32.093C37.8831 32.29 38.2114 32.29 38.2771 32.487C38.3427 32.684 38.7367 32.6183 38.8024 32.8153C38.868 33.1436 39.1307 32.8153 38.9337 32.6183C38.7367 32.4213 38.8024 32.3557 38.9337 32.2243C39.065 32.093 39.1307 32.29 39.3277 32.0274C39.5247 31.7647 39.262 31.8304 39.1964 31.699C39.1307 31.5677 39.1964 30.8454 39.459 30.9767C39.7217 31.1081 39.9843 30.9111 39.853 30.8454C39.7217 30.7798 39.9187 30.3858 39.9843 30.3858C40.05 30.3858 39.9843 30.6484 40.05 30.7141C40.1156 30.7798 40.7723 30.5171 40.8379 30.8454C40.9036 31.1737 40.3783 31.3707 40.247 31.3707C39.9843 31.3707 39.7873 31.6334 39.5903 31.896C39.3933 32.1587 39.1964 32.2243 39.3277 32.487C39.459 32.7497 39.7217 32.684 39.9843 32.5527C40.247 32.4213 40.444 32.2243 40.5753 32.1587C40.8379 32.0274 41.0349 32.8153 40.9036 32.9466C40.7723 33.078 40.5096 33.1436 40.3783 33.275C39.9843 33.472 39.5903 33.6689 39.1307 33.6689C38.868 33.7346 38.868 33.8003 38.8024 34.0629C38.7367 34.3256 37.5548 34.1286 37.2921 34.1286C37.0295 34.1286 37.4891 33.5376 37.0951 33.6033C36.7011 33.6689 36.3072 33.7346 35.9132 33.8003C35.8475 33.8003 35.4535 34.1286 35.1252 33.8659ZM38.6054 39.9726C38.9337 40.104 39.262 40.3666 39.459 40.6293C39.656 40.9576 39.7217 41.0889 39.5903 41.4172C39.262 42.0082 39.3933 42.4022 40.05 42.5992C40.444 42.7305 40.5753 43.1245 40.8379 43.3871C39.3933 43.7811 37.8831 43.9781 36.3728 44.0438V40.2353C37.0951 40.1696 37.8831 40.104 38.6054 39.9726ZM36.3728 39.1847V38.725C37.2265 38.5937 37.0295 39.119 37.6204 38.922C37.8174 38.8564 38.0144 38.922 38.1457 39.0534C37.5548 39.0534 36.9638 39.119 36.3728 39.1847ZM36.3728 48.9685V45.0944C38.3427 45.0287 40.3126 44.7004 42.2169 44.0438C42.2825 44.1094 42.3482 44.1094 42.4139 44.1094C42.6765 44.1094 42.9392 43.9781 43.1362 43.8468C43.7928 43.5841 44.3838 43.2558 44.9091 42.8618C46.6163 42.0082 48.2579 40.8263 49.6368 39.513L52.3291 42.2052C48.0609 46.4077 42.3482 48.7715 36.3728 48.9685ZM47.0103 14.6265L47.9296 13.7072C48.1923 13.9699 48.4549 14.1669 48.8489 14.2326C49.1772 14.2982 49.3085 14.4295 49.3742 14.7579C49.4399 15.0862 49.7682 15.2175 50.0965 15.2832C50.4248 15.3488 50.6218 15.7428 50.8845 15.7428C51.1471 15.7428 52.0007 16.9248 52.3291 17.3187C52.526 17.5157 52.7887 17.844 52.9857 17.5814C53.1827 17.3187 53.1827 17.3844 53.314 17.3187C54.299 19.5513 54.8899 22.0465 54.9556 24.4761H51.1471C51.1471 23.6224 51.0158 22.7688 50.8188 21.9152C50.9501 21.6525 51.0158 21.3899 51.0158 21.0616C51.0158 20.7989 50.7531 20.6676 50.5561 20.8646C50.4248 20.3393 50.2278 19.8796 50.0308 19.42C49.9652 19.1573 49.8995 18.829 49.8338 18.5663C49.8338 18.5007 49.7025 18.435 49.5712 18.3037C49.4399 18.041 49.3742 17.844 49.2429 17.6471C49.4399 17.5157 49.5055 17.1874 49.2429 17.2531C48.8489 17.3187 49.1115 17.0561 48.9802 16.9248C48.8489 16.7934 48.8489 16.9248 48.7832 16.9904C48.2579 16.2025 47.7326 15.4802 47.076 14.7579C47.076 14.7579 47.076 14.7579 47.076 14.6922C46.9446 14.6922 46.9446 14.6265 47.0103 14.6265ZM49.3085 36.8865C49.1772 36.6238 49.1115 36.2955 48.9802 36.0328C48.9146 35.7702 48.3892 35.7702 48.3892 35.9015C48.3892 36.1642 48.3892 36.4268 48.3236 36.6895V36.7551L46.9446 35.3762C49.4399 32.684 50.8845 29.2038 51.0158 25.5267H54.8243C54.6929 30.1888 52.8544 34.6539 49.6368 38.0027L49.4399 37.8057C49.5055 37.5431 49.4399 37.2148 49.3085 36.8865ZM46.1567 39.513C46.3537 39.1847 46.7477 38.5937 46.9446 38.2654C47.1416 37.9371 46.4193 37.4774 46.0254 37.3461C45.6314 37.2148 45.6314 37.0178 45.6314 36.6895C45.8284 36.5581 46.0254 36.3611 46.2224 36.1642L48.9146 38.8564C47.9953 39.71 47.076 40.4323 46.0254 41.0889C45.9597 40.9576 46.4193 40.4979 46.5507 40.301C46.682 40.104 46.0254 39.8413 46.1567 39.513ZM47.7983 23.8194C47.47 23.3598 47.9296 23.2941 48.3892 23.0971C48.6519 22.9658 48.9802 23.1628 48.9802 23.0315C48.9802 22.9001 49.1115 22.6375 49.2429 22.5718C49.3742 22.5062 49.5712 22.3748 49.6368 22.2435C49.6368 22.3748 49.7025 22.5062 49.7025 22.6375C49.5712 22.9001 49.5055 23.0971 49.5055 23.3598C49.5055 23.5568 49.5055 23.8194 49.7025 23.3598C49.7025 23.2941 49.7682 23.2941 49.7682 23.2285C49.8995 23.6881 49.8995 24.0821 49.8995 24.4761H47.076C47.076 24.4761 47.076 24.4761 47.076 24.4104C47.273 24.0821 47.9953 24.1477 47.7983 23.8194ZM48.3236 18.435C48.3236 18.435 48.3236 18.5007 48.2579 18.5007C48.1923 18.5663 47.8639 18.041 47.8639 18.435C47.8639 18.829 47.9953 18.9603 48.2579 19.026C48.5206 19.0917 48.3892 19.223 48.5862 19.2886C48.6519 19.2886 48.7832 19.3543 48.8489 19.42C49.1772 20.1423 49.3742 20.8646 49.5712 21.6525C49.4399 21.7182 49.3742 21.7839 49.3085 21.8495C49.1772 21.9808 49.2429 22.2435 49.1115 22.4405C48.9146 22.7688 48.8489 22.9658 48.3236 22.8345C47.9953 22.7031 48.2579 22.3092 48.3236 21.9809C48.3892 21.6525 48.5206 21.7182 48.5206 21.5212C48.5206 21.3242 47.8639 20.6019 47.5356 20.8646C47.2073 21.1272 47.273 21.3899 47.0103 21.6525C46.879 21.7839 46.7477 21.7839 46.5507 21.6525C46.3537 21.5212 46.288 21.3899 46.3537 21.2586C46.4193 21.1272 45.894 20.5363 45.697 20.2736C45.4344 19.9453 45.0404 19.7483 44.6464 19.7483C44.3181 19.1573 43.8585 18.5663 43.3988 18.041L46.091 15.3488C47.0103 16.3338 47.7326 17.3187 48.3236 18.435ZM43.7928 20.2736L43.6615 20.4706C43.5958 20.6019 43.2675 20.3393 43.2018 20.4049C43.1362 20.4706 43.6615 21.1272 43.1362 20.9302C42.6109 20.7332 42.9392 20.7332 42.9392 20.5363C42.9392 20.3393 42.4795 20.2079 42.7422 20.0766C43.0048 19.9453 42.7422 19.7483 43.0048 19.6826C43.2675 19.617 43.2018 19.3543 42.8735 19.2886C42.5452 19.223 42.6109 20.0109 42.4139 19.8796C42.2169 19.814 42.0199 19.814 41.8229 19.814L42.7422 18.8947C42.8735 18.9603 42.9392 18.9603 43.0705 18.9603C43.2018 19.4856 43.5301 19.8796 43.7928 20.2736ZM42.7422 33.6033C43.1362 33.6689 43.5958 33.7346 43.9898 33.8659C44.2524 33.9973 44.4494 34.2599 44.6464 33.9316C45.0404 33.3406 45.3031 32.684 45.4344 31.9617C45.5657 30.9767 45.3687 30.6484 45.2374 30.6484C45.1061 30.6484 44.8434 30.9111 44.5808 30.9111C44.4494 30.9111 44.4494 31.1737 44.4494 31.3707C44.4494 31.5677 44.1868 31.7647 44.1211 31.6334C44.0555 31.5021 43.9241 31.5677 43.9898 31.699C44.0555 31.8304 43.4645 31.7647 43.2018 31.6334C42.8078 31.4364 43.6615 31.4364 44.0555 31.1081C44.3838 30.8454 44.7121 30.5171 45.0404 30.1888C45.2374 29.8605 45.2374 29.4665 45.5657 29.2038C45.894 28.9412 46.4193 29.0068 46.485 28.6129C46.5507 28.2189 46.6163 28.2845 46.8133 28.3502C47.0103 28.4159 48.8489 28.2845 48.8489 27.6936C48.8489 27.4309 48.4549 27.1026 48.0609 27.0369C47.7983 27.0369 47.7326 26.5116 47.6013 26.249C47.47 25.9863 47.3386 25.7237 47.1416 25.461H49.8995C49.7682 28.8099 48.4549 32.0274 46.1567 34.5226L46.091 34.4569V34.1943C46.1567 33.6689 45.7627 32.8153 45.6314 32.9466C45.5 33.078 45.6314 33.078 45.2374 33.6689C45.1061 33.8659 44.9091 34.1943 44.6464 34.1943C44.3838 34.1943 44.3838 34.0629 43.9898 34.1286C43.6615 34.1943 43.2675 34.1943 42.9392 34.1286C42.3482 33.9316 41.7572 33.6689 41.1663 33.275C41.2319 33.2093 41.4289 33.3406 41.4289 33.1436C41.4289 32.9467 42.4795 33.5376 42.7422 33.6033ZM53.0514 41.5486L50.3591 38.8564C53.7736 35.2449 55.7436 30.5171 55.8749 25.5923H59.749C59.6177 31.5677 57.2538 37.2148 53.0514 41.5486ZM59.749 24.4761H55.8749C55.8092 21.6525 55.1526 18.8947 53.905 16.3338L53.9706 16.2681C54.2333 16.0055 52.723 14.0356 52.4604 13.8386C52.1977 13.6416 51.9351 13.3133 51.6068 12.985C51.0814 12.4596 50.5561 11.8687 50.1622 11.2777L52.9857 8.45417C57.2538 12.788 59.6177 18.5007 59.749 24.4761ZM36.3728 1.09986C42.3482 1.23119 48.0609 3.59507 52.3947 7.73187L49.7682 10.3584C49.6369 10.2927 49.5055 10.2271 49.5712 10.0958C49.7025 9.89877 49.3742 9.89877 49.3085 9.37346C49.1772 8.84815 48.7832 8.38851 48.3236 8.12586C47.9953 7.92886 47.7983 7.66621 47.47 7.53488C47.1416 7.40356 46.485 7.00958 46.1567 7.1409C45.9597 7.20657 45.697 7.27223 45.5001 7.27223C42.6765 5.76197 39.5903 4.97401 36.4385 4.90834L36.3728 1.09986ZM36.3728 6.02462C39.1964 6.09029 41.8886 6.81259 44.4494 8.06019C44.5151 8.45417 44.7121 8.91382 44.9747 9.24213C45.1061 9.57045 45.3031 9.8331 45.5001 10.1614C45.697 10.3584 45.5657 10.7524 45.6314 11.0807C45.6314 11.212 45.7627 11.3434 45.8284 11.4747C45.8284 11.6717 45.8284 11.803 45.8284 12C45.8284 12.0657 46.091 12.0657 46.288 11.9343C46.485 11.803 46.6163 11.5404 46.879 11.606C47.1416 11.6717 47.47 12.197 47.6669 12.5253L46.4193 13.7729C46.288 13.5103 46.1567 13.1819 46.2224 13.1819C46.288 13.1819 46.4193 13.2476 46.485 13.2476C46.7477 13.2476 46.288 13.0506 46.288 12.985C46.091 12.788 46.091 12.5253 45.8284 12.3283C45.5657 12.1313 45.1717 12.2627 45.0404 12C44.7778 11.5404 44.4494 11.1464 43.9898 10.8181C43.9241 10.8181 44.5151 11.5404 44.3181 11.6717C44.1211 11.803 43.3988 11.212 43.3332 11.3434C43.2675 11.4747 44.1211 11.803 44.3838 12.0657C44.5151 12.197 44.7778 12.591 45.0404 12.9193C42.5452 11.015 39.5247 9.96443 36.3728 9.8331V6.02462ZM36.3728 10.8837C39.7217 11.015 42.9392 12.3283 45.4344 14.6265L42.7422 17.3187C40.9693 15.7428 38.7367 14.8235 36.3728 14.6922V10.8837ZM36.3728 15.8085C38.4741 15.9398 40.444 16.7278 41.9542 18.1067L41.8229 18.238L41.6916 18.1724C41.3633 18.041 40.7066 18.6977 40.8379 18.7633C40.9693 18.829 41.2319 18.5007 41.3633 18.5663H41.4289L40.3126 19.7483C39.9843 19.8796 39.656 20.1423 39.656 20.3393C39.656 20.3393 39.656 20.3393 39.656 20.4049L39.262 20.7989L39.065 20.6019C38.7367 20.3393 38.4084 20.1423 38.0144 20.0109C38.2114 19.8796 38.2771 19.6826 38.3427 19.42C38.3427 19.026 38.2114 19.1573 38.0144 19.3543C37.8174 19.5513 37.6204 19.617 37.4891 19.814C37.1608 19.6826 36.7668 19.617 36.4385 19.617V15.8085H36.3728ZM35.9132 20.6676C35.9788 20.7989 35.9132 20.9302 35.8475 20.9959C35.7162 21.1272 35.3222 20.6676 35.2565 21.0616C35.1252 21.4555 35.5192 21.2586 35.5192 21.3242C35.7162 21.5869 35.9788 21.7182 36.3072 21.7839C36.5698 21.7839 36.9638 21.7839 36.9638 22.0465C36.9638 22.1778 37.2921 22.1778 37.3578 22.3092C37.3578 22.5062 37.5548 22.8345 37.6861 22.7688C37.8174 22.7031 38.0144 22.8345 38.0801 22.9658C38.1457 23.0971 38.0801 23.1628 38.0144 23.2941C37.8174 23.4911 38.2114 23.4254 38.2771 23.8194C38.3427 24.2134 37.9488 23.9508 37.8831 24.2134C37.7518 24.4104 37.6204 24.5417 37.4891 24.7387C37.4234 24.8044 37.5548 24.9357 37.6204 24.87C37.6861 24.8044 37.8174 24.6074 38.0144 24.6074C38.2114 24.6074 38.4084 25.3297 38.6054 25.3953C38.8024 25.461 38.7367 25.7237 38.8024 25.7893C38.868 25.855 38.4741 25.7893 38.5397 25.9207C38.6054 26.052 38.9994 26.1176 38.9994 26.3146C38.9337 26.5116 38.8024 26.7086 38.5397 26.7086C38.3427 26.7086 38.0144 26.249 38.0144 26.3803C38.0144 26.5116 38.1457 26.9056 38.3427 26.9056C38.5397 26.9056 38.9994 26.7086 38.8024 26.9713C38.6054 27.2339 38.6711 27.6279 38.5397 27.6279C38.4084 27.6279 38.3427 27.6279 38.4741 27.8249C38.5397 28.0219 38.4741 28.2189 38.3427 28.4159C38.2114 28.5472 37.8831 28.4159 37.8831 28.3502C37.8831 28.2845 38.2771 28.2845 38.2771 28.0876C38.2771 27.8906 38.0801 27.8249 37.6861 27.9562C37.4891 28.0219 37.4234 27.8906 37.2921 27.8906C37.1608 27.8906 36.7668 28.3502 36.7668 28.4159C36.7668 28.4815 36.7668 28.6129 36.7668 28.7442C36.7668 29.0068 36.7011 29.2038 36.5698 29.4008C36.3072 29.4665 36.1102 29.4665 35.8475 29.4665C34.7969 29.4665 33.7463 29.0068 32.9583 28.3502C33.0897 28.2845 33.2866 28.2189 33.4836 28.2189C33.6806 28.2845 33.7463 28.1532 33.8776 28.0876C34.0089 28.0219 34.3373 28.2189 34.5343 28.0876C34.7312 27.9562 35.1909 27.1026 35.1252 26.9056C35.0596 26.7086 35.5849 26.3803 35.5192 26.3146C35.4535 26.249 35.3879 26.3803 35.3879 26.3146C35.3879 26.249 35.5192 26.249 35.3879 25.9863C35.2565 25.7237 35.0596 25.855 34.9282 25.855C34.7312 25.7237 34.4029 25.658 34.3373 25.7237C34.2716 25.7893 34.0746 25.5923 34.0089 25.658C33.9433 25.658 33.812 25.7237 33.812 25.855C33.7463 25.9863 33.8776 26.1176 33.8776 26.249C33.812 26.5116 33.418 26.7086 33.418 26.9056C33.418 27.1026 33.221 26.9713 33.1553 27.0369C33.0897 27.1026 33.1553 27.2339 33.024 27.2339C32.8927 27.2339 32.6957 27.5622 32.5643 27.8249C32.3674 27.5622 32.1704 27.2339 31.9734 26.9713C32.1047 26.9056 32.236 26.8399 32.3017 26.9056C32.4987 27.0369 33.2866 25.658 33.1553 25.264C33.024 24.87 32.827 25.1327 32.63 25.1984C32.433 25.264 32.433 25.067 32.4987 25.0014C32.5643 24.9357 33.418 24.9357 32.9583 24.6731C32.7613 24.5417 32.236 24.5417 32.3017 24.3447C32.3674 24.1477 32.63 24.3447 32.6957 24.3447C33.024 24.4761 33.221 23.8194 33.418 23.8194C33.7463 23.8194 33.615 23.1628 33.2866 23.3598C32.9583 23.5568 32.827 23.4911 32.6957 23.6881C32.5643 23.8851 32.236 24.1477 32.236 23.8851C32.236 23.7538 32.9583 23.3598 33.0897 23.1628C33.221 23.0315 33.3523 22.8345 33.418 22.6375C33.4836 22.4405 34.4029 22.3092 34.5999 22.1778C34.7312 22.0465 34.8626 21.8495 34.8626 21.6525C34.8626 21.4555 34.5999 21.5212 34.5343 21.3899C34.4686 21.2586 34.8626 21.3899 34.8626 21.1929C34.8626 20.9959 34.5343 21.1929 34.4029 21.0616C34.4029 20.9959 34.4029 20.9959 34.4686 20.9302C35.0596 20.7332 35.4535 20.6676 35.9132 20.6676H36.0445H35.9132ZM35.3222 1.09986V4.90834C30.3975 5.03967 25.6697 7.00958 22.0582 10.4241L19.366 7.73187C23.6341 3.59507 29.3468 1.23119 35.3222 1.09986ZM18.5124 8.51983L21.2046 11.212C17.7901 14.8235 15.8202 19.5513 15.6888 24.4761H11.8804C12.0773 18.5007 14.4412 12.788 18.5124 8.51983Z" fill="#C7C7C7"/>
</svg>
