<svg width="250" height="47" viewBox="0 0 250 47" fill="none" xmlns="http://www.w3.org/2000/svg">
<path d="M41.1495 37.4381C46.6019 33.5472 50.0663 27.7232 50.0663 21.2108C50.0663 9.49547 38.8573 0 25.0319 0C11.2065 0 0 9.49547 0 21.2108C0 32.9261 11.2065 42.4216 25.0319 42.4216C28.4241 42.4216 31.6566 41.8479 34.6047 40.8128C40.4212 46.1953 43.6936 46.1978 46.2327 46.1978C44.1526 44.6863 42.1422 40.0221 41.147 37.4406L41.1495 37.4381Z" fill="#2596C4"/>
<path d="M25.0319 16.3047C27.3737 16.3047 29.2721 14.4063 29.2721 12.0645C29.2721 9.72276 27.3737 7.82437 25.0319 7.82437C22.6901 7.82437 20.7917 9.72276 20.7917 12.0645C20.7917 14.4063 22.6901 16.3047 25.0319 16.3047Z" fill="white"/>
<path d="M20.2131 17.018C19.5396 16.3271 18.4347 16.3122 17.7438 16.9856C17.0529 17.659 17.038 18.764 17.7114 19.4549C19.5671 21.3604 22.1611 22.5427 25.0319 22.5427C27.9027 22.5427 30.4967 21.3604 32.3524 19.4549C33.0259 18.764 33.0109 17.659 32.32 16.9856C31.6291 16.3122 30.5242 16.3271 29.8507 17.018C28.5737 18.3275 26.8627 19.0508 25.0319 19.0508C23.2012 19.0508 21.4901 18.33 20.2131 17.018Z" fill="white"/>
<path d="M17.0229 22.2184C16.2971 21.5824 15.1947 21.6572 14.5587 22.3806C13.9226 23.1064 13.9975 24.2088 14.7208 24.8448C17.4744 27.2568 21.081 28.7184 25.0319 28.7184C28.9827 28.7184 32.5893 27.2568 35.3429 24.8448C36.0688 24.2088 36.1411 23.1064 35.5051 22.3806C34.869 21.6548 33.7666 21.5824 33.0408 22.2184C30.8259 24.1589 27.98 25.2265 25.0294 25.2265C22.0787 25.2265 19.2328 24.1589 17.018 22.2184" fill="white"/>
<path d="M14.1297 27.2318C13.3814 26.6233 12.2815 26.7355 11.6729 27.4838C11.0643 28.232 11.1765 29.332 11.9248 29.9406C15.5015 32.8538 20.0634 34.5973 25.0319 34.5973C30.0004 34.5973 34.5623 32.8538 38.139 29.9406C38.8872 29.332 38.9995 28.232 38.3909 27.4838C37.7823 26.7355 36.6824 26.6233 35.9341 27.2318C32.8238 29.766 29.0551 31.1029 25.0319 31.1029C21.0087 31.1029 17.24 29.7635 14.1297 27.2318Z" fill="white"/>
<path d="M67.5708 12.9325H61.4325V9.14627H78.2136V12.9325H72.0753V29.6263H67.5708V12.9325Z" fill="#051114"/>
<path d="M77.7246 19.3601C77.9541 15.5739 81.3687 14.3966 84.696 14.3966C87.6516 14.3966 91.2083 15.0551 91.2083 18.6143V26.3314C91.2083 27.6808 91.3505 29.0277 91.7246 29.6313H87.5942C87.4521 29.1723 87.3348 28.6835 87.3074 28.1971C86.0179 29.5465 84.1522 30.0328 82.3165 30.0328C79.4756 30.0328 77.2682 28.6286 77.2682 25.5856C77.2682 21.772 80.5655 21.2532 83.3491 20.9389C85.9007 20.6521 87.1353 20.4501 87.1353 19.1331C87.1353 17.4121 85.9306 17.1253 84.4964 17.1253C82.9176 17.1253 81.9423 17.7563 81.8002 19.3626H77.7271L77.7246 19.3601ZM87.1328 22.3706C86.7038 22.7722 85.7859 22.9443 84.666 23.0889C82.9725 23.3184 81.3387 23.6052 81.3387 25.4135C81.3387 26.9051 82.5135 27.3067 83.8354 27.3067C87.0206 27.3067 87.1328 24.8124 87.1328 23.8921V22.3731V22.3706Z" fill="#051114"/>
<path d="M94.2014 9.14627H98.2745V29.6263H94.2014V9.14627Z" fill="#051114"/>
<path d="M101.377 9.14627H105.45V20.1333L110.586 14.7982H115.405L109.81 20.248L116.036 29.6288H111.102L107.029 23.0016L105.453 24.5206V29.6263H101.38V9.14627H101.377Z" fill="#051114"/>
<path d="M123.518 14.7982H126.501V17.5244H123.518V24.8673C123.518 26.2441 123.863 26.5883 125.239 26.5883C125.698 26.5883 126.127 26.5584 126.501 26.4736V29.6587C125.813 29.7734 124.923 29.8009 124.12 29.8009C121.595 29.8009 119.443 29.2546 119.443 26.2716V17.5219H116.976V14.7957H119.443V10.3485H123.516V14.7957L123.518 14.7982Z" fill="#051114"/>
<path d="M135.675 14.3966C140.349 14.3966 143.362 17.4944 143.362 22.2284C143.362 26.9625 140.349 30.0303 135.675 30.0303C131.001 30.0303 128.016 26.9325 128.016 22.2284C128.016 17.5244 131.026 14.3966 135.675 14.3966ZM135.675 26.96C138.456 26.96 139.289 24.6079 139.289 22.2259C139.289 19.844 138.456 17.4645 135.675 17.4645C132.894 17.4645 132.089 19.8465 132.089 22.2259C132.089 24.6054 132.922 26.96 135.675 26.96Z" fill="#051114"/>
<path d="M155.764 8.65991C160.238 8.65991 164.054 11.2988 164.598 16.0328H160.238C159.924 13.995 157.974 12.4461 155.764 12.4461C151.718 12.4461 150.199 15.8881 150.199 19.4748C150.199 23.0615 151.721 26.3314 155.764 26.3314C158.517 26.3314 160.066 24.4682 160.41 21.7421H164.77C164.311 26.8776 160.812 30.1176 155.764 30.1176C149.453 30.1176 145.695 25.3836 145.695 19.4748C145.695 13.566 149.451 8.65991 155.764 8.65991Z" fill="#051114"/>
<path d="M167.244 19.3601C167.474 15.5739 170.889 14.3966 174.216 14.3966C177.171 14.3966 180.728 15.0551 180.728 18.6143V26.3314C180.728 27.6808 180.87 29.0277 181.244 29.6313H177.114C176.972 29.1723 176.855 28.6835 176.827 28.1971C175.538 29.5465 173.672 30.0328 171.836 30.0328C168.995 30.0328 166.788 28.6286 166.788 25.5856C166.788 21.772 170.085 21.2532 172.869 20.9389C175.42 20.6521 176.655 20.4501 176.655 19.1331C176.655 17.4121 175.45 17.1253 174.016 17.1253C172.437 17.1253 171.462 17.7563 171.32 19.3626H167.247L167.244 19.3601ZM176.653 22.3706C176.224 22.7722 175.306 22.9443 174.186 23.0889C172.492 23.3184 170.859 23.6052 170.859 25.4135C170.859 26.9051 172.033 27.3067 173.355 27.3067C176.54 27.3067 176.653 24.8124 176.653 23.8921V22.3731V22.3706Z" fill="#051114"/>
<path d="M184.258 14.7982H188.131V16.8634H188.216C189.248 15.1698 191.027 14.3966 192.748 14.3966C197.08 14.3966 198.17 16.8359 198.17 20.5074V29.6288H194.097V21.2532C194.097 18.8139 193.409 17.6092 191.488 17.6092C189.278 17.6092 188.333 18.8438 188.333 21.8543V29.6288H184.26V14.7982H184.258Z" fill="#051114"/>
<path d="M201.378 19.3601C201.607 15.5739 205.022 14.3966 208.349 14.3966C211.305 14.3966 214.861 15.0551 214.861 18.6143V26.3314C214.861 27.6808 215.004 29.0277 215.378 29.6313H211.247C211.103 29.1723 210.988 28.6835 210.961 28.1971C209.669 29.5465 207.805 30.0328 205.97 30.0328C203.131 30.0328 200.921 28.6286 200.921 25.5856C200.921 21.772 204.221 21.2532 207.002 20.9389C209.556 20.6521 210.788 20.4501 210.788 19.1331C210.788 17.4121 209.584 17.1253 208.15 17.1253C206.573 17.1253 205.598 17.7563 205.453 19.3626H201.38L201.378 19.3601ZM210.788 22.3706C210.357 22.7722 209.439 22.9443 208.322 23.0889C206.628 23.3184 204.994 23.6052 204.994 25.4135C204.994 26.9051 206.172 27.3067 207.491 27.3067C210.676 27.3067 210.791 24.8124 210.791 23.8921V22.3731L210.788 22.3706Z" fill="#051114"/>
<path d="M228.829 27.7357H228.772C227.826 29.342 226.19 30.0304 224.27 30.0304C219.795 30.0304 217.615 26.2167 217.615 22.0838C217.615 17.9509 219.825 14.3966 224.185 14.3966C225.936 14.3966 227.657 15.1424 228.575 16.6065H228.632V9.1488H232.705V29.6288H228.832V27.7357H228.829ZM225.272 17.4645C222.604 17.4645 221.686 19.7891 221.686 22.1985C221.686 24.6079 222.748 26.96 225.272 26.96C227.941 26.96 228.772 24.6079 228.772 22.1686C228.772 19.7293 227.911 17.4645 225.272 17.4645Z" fill="#051114"/>
<path d="M236 19.3601C236.229 15.5739 239.644 14.3966 242.971 14.3966C245.927 14.3966 249.484 15.0551 249.484 18.6143V26.3314C249.484 27.6808 249.626 29.0277 250 29.6313H245.87C245.727 29.1723 245.61 28.6835 245.583 28.1971C244.293 29.5465 242.428 30.0328 240.592 30.0328C237.751 30.0328 235.544 28.6286 235.544 25.5856C235.544 21.772 238.841 21.2532 241.624 20.9389C244.176 20.6521 245.411 20.4501 245.411 19.1331C245.411 17.4121 244.206 17.1253 242.772 17.1253C241.193 17.1253 240.218 17.7563 240.076 19.3626H236.002L236 19.3601ZM245.408 22.3706C244.979 22.7722 244.061 22.9443 242.941 23.0889C241.248 23.3184 239.614 23.6052 239.614 25.4135C239.614 26.9051 240.789 27.3067 242.111 27.3067C245.296 27.3067 245.408 24.8124 245.408 23.8921V22.3731V22.3706Z" fill="#051114"/>
</svg>
